{"glyphs":{"0":{"ha":850,"x_min":0,"x_max":0,"o":"m 57 283 b 418 -14 76 114 231 -14 b 793 283 613 -14 774 114 b 797 485 797 328 797 372 b 793 685 797 597 797 640 b 418 982 774 854 613 982 b 57 685 231 982 76 854 b 53 485 53 640 53 597 b 57 283 53 372 53 328 z m 306 313 b 301 485 301 344 301 393 b 306 649 301 576 301 617 b 425 749 311 707 361 749 b 544 649 483 749 538 707 b 549 485 549 617 549 576 b 544 313 549 393 549 344 b 425 213 538 254 483 213 b 306 313 361 213 311 254 z "},"1":{"ha":536,"x_min":0,"x_max":0,"o":"m 188 0 l 451 0 l 451 968 l 43 968 l 43 729 l 188 729 z "},"2":{"ha":778,"x_min":0,"x_max":0,"o":"m 24 0 l 744 0 l 744 239 l 411 239 l 597 404 b 731 667 672 472 731 554 b 399 982 731 842 582 982 b 54 635 208 982 54 828 l 286 635 b 399 760 286 706 336 760 b 499 667 454 760 499 719 b 447 563 499 619 476 590 l 24 174 z "},"3":{"ha":789,"x_min":0,"x_max":0,"o":"m -4 172 b 361 -10 67 64 199 -10 b 753 336 610 -10 753 149 b 528 613 753 471 661 590 l 526 613 l 711 778 l 711 968 l 81 968 l 81 729 l 378 729 l 158 546 l 239 415 b 340 426 268 422 310 426 b 492 328 436 426 492 382 b 354 226 492 264 428 226 b 199 310 286 226 236 254 z "},"4":{"ha":872,"x_min":0,"x_max":0,"o":"m 53 164 l 536 164 l 536 0 l 793 0 l 793 564 l 536 564 l 536 394 l 342 394 l 622 968 l 354 968 l 53 346 z "},"5":{"ha":781,"x_min":0,"x_max":0,"o":"m 6 185 b 357 -10 68 69 199 -10 b 744 329 572 -10 744 143 b 403 650 744 507 590 650 b 339 644 381 650 357 649 l 358 729 l 674 729 l 674 968 l 175 968 l 69 464 l 265 413 b 357 444 288 436 331 444 b 483 336 429 444 483 413 b 357 226 483 269 426 226 b 215 315 292 226 239 264 z "},"6":{"ha":807,"x_min":0,"x_max":0,"o":"m 24 350 b 400 0 24 157 192 0 b 783 353 613 0 783 158 b 463 689 783 581 582 689 b 444 688 456 689 444 688 l 635 968 l 350 968 l 164 683 b 24 350 82 557 24 464 z m 279 353 b 400 471 279 417 333 471 b 522 353 467 471 522 415 b 400 236 522 289 467 236 b 279 353 335 236 279 288 z "},"7":{"ha":758,"x_min":0,"x_max":0,"o":"m 88 0 l 353 0 l 728 754 l 728 968 l 31 968 l 31 729 l 457 729 z "},"8":{"ha":821,"x_min":0,"x_max":0,"o":"m 38 329 b 410 -10 38 143 204 -10 b 783 329 617 -10 783 143 b 657 556 783 422 733 507 b 717 694 694 589 717 633 b 410 982 717 853 578 982 b 103 694 240 982 103 853 b 163 556 103 633 125 588 b 38 329 86 506 38 422 z m 410 622 b 335 694 368 622 335 654 b 410 760 335 731 368 760 b 485 694 451 760 485 731 b 410 622 485 654 451 622 z m 299 329 b 410 433 299 385 349 433 b 522 329 471 433 522 383 b 410 226 522 274 471 226 b 299 329 350 226 299 272 z "},"9":{"ha":815,"x_min":0,"x_max":0,"o":"m 168 0 l 453 0 l 644 294 b 785 628 726 421 785 514 b 411 978 785 821 618 978 b 31 625 200 978 31 819 b 346 289 31 397 229 289 b 364 290 353 289 364 290 z m 411 507 b 292 625 346 507 292 563 b 411 742 292 689 346 742 b 529 625 475 742 529 690 b 411 507 529 561 476 507 z "}," ":{"ha":542,"x_min":0,"x_max":0,"o":""},"A":{"ha":1047,"x_min":0,"x_max":0,"o":"m 8 0 l 286 0 l 338 126 l 710 126 l 760 0 l 1039 0 l 644 968 l 403 968 z m 407 331 l 524 631 l 640 331 z "},"B":{"ha":896,"x_min":0,"x_max":0,"o":"m 79 0 l 565 0 b 860 286 735 0 860 122 b 665 526 860 407 793 500 b 789 721 743 557 789 628 b 529 968 789 864 675 968 l 79 968 z m 343 582 l 343 754 l 471 754 b 553 669 518 754 553 717 b 471 582 553 618 518 582 z m 343 217 l 343 401 l 506 401 b 606 311 565 401 606 363 b 507 217 606 258 564 217 z "},"C":{"ha":989,"x_min":0,"x_max":0,"o":"m 42 483 b 569 -14 42 196 278 -14 b 971 175 731 -14 874 60 l 792 325 b 569 222 735 261 656 222 b 306 483 424 222 306 332 b 569 746 306 635 424 746 b 792 643 656 746 735 707 l 971 793 b 569 982 874 908 731 982 b 42 483 278 982 42 771 z "},"D":{"ha":1033,"x_min":0,"x_max":0,"o":"m 79 0 l 474 0 b 992 482 821 0 992 197 b 472 968 992 758 819 968 l 79 968 z m 343 239 l 343 718 l 456 718 b 726 482 689 718 726 610 b 457 239 726 353 689 239 z "},"E":{"ha":860,"x_min":0,"x_max":0,"o":"m 79 0 l 804 0 l 804 233 l 343 233 l 343 381 l 763 381 l 763 597 l 343 597 l 343 731 l 793 731 l 793 968 l 79 968 z "},"F":{"ha":825,"x_min":0,"x_max":0,"o":"m 79 0 l 343 0 l 343 357 l 739 357 l 739 581 l 343 581 l 343 731 l 779 731 l 779 968 l 79 968 z "},"G":{"ha":1047,"x_min":0,"x_max":0,"o":"m 42 483 b 569 -14 42 196 278 -14 b 999 201 753 -14 911 75 l 999 590 l 521 590 l 521 371 l 771 371 l 771 306 b 569 222 724 251 653 222 b 306 483 424 222 306 332 b 569 746 306 635 424 746 b 783 660 651 746 729 715 l 963 810 b 569 982 865 917 726 982 b 42 483 278 982 42 771 z "},"H":{"ha":1050,"x_min":0,"x_max":0,"o":"m 79 0 l 343 0 l 343 390 l 707 390 l 707 0 l 971 0 l 971 968 l 707 968 l 707 632 l 343 632 l 343 968 l 79 968 z "},"I":{"ha":433,"x_min":0,"x_max":0,"o":"m 85 0 l 349 0 l 349 968 l 85 968 z "},"J":{"ha":543,"x_min":0,"x_max":0,"o":"m 8 -4 b 135 -14 53 -11 94 -14 b 483 363 458 -14 483 175 l 483 968 l 219 968 l 219 344 b 97 222 219 279 204 222 b 8 229 67 222 31 224 z "},"K":{"ha":986,"x_min":0,"x_max":0,"o":"m 79 0 l 343 0 l 343 249 l 439 360 l 685 0 l 996 0 l 621 539 l 983 968 l 674 968 l 343 575 l 343 968 l 79 968 z "},"L":{"ha":739,"x_min":0,"x_max":0,"o":"m 79 0 l 711 0 l 711 239 l 343 239 l 343 968 l 79 968 z "},"M":{"ha":1219,"x_min":0,"x_max":0,"o":"m 79 0 l 324 0 l 324 513 l 610 117 l 896 513 l 896 0 l 1140 0 l 1140 968 l 924 968 l 610 528 l 296 968 l 79 968 z "},"N":{"ha":1053,"x_min":0,"x_max":0,"o":"m 79 0 l 332 0 l 332 540 l 758 0 l 974 0 l 974 968 l 721 968 l 721 449 l 315 968 l 79 968 z "},"O":{"ha":1151,"x_min":0,"x_max":0,"o":"m 42 481 b 575 -19 42 204 279 -19 b 1110 481 872 -19 1110 204 b 575 982 1110 757 872 982 b 42 481 279 982 42 757 z m 311 481 b 575 746 311 624 429 746 b 840 481 721 746 840 622 b 575 217 840 338 719 217 b 311 481 431 217 311 332 z "},"P":{"ha":904,"x_min":0,"x_max":0,"o":"m 79 0 l 343 0 l 343 281 l 533 281 b 874 624 692 281 874 417 b 533 968 874 857 674 968 l 79 968 z m 343 519 l 343 729 l 521 729 b 614 624 532 729 614 729 b 522 519 614 522 533 519 z "},"Q":{"ha":1149,"x_min":0,"x_max":0,"o":"m 42 483 b 574 -14 42 208 279 -14 b 811 38 660 -14 740 4 l 896 -56 l 1069 94 l 990 183 b 1107 483 1063 264 1107 368 b 574 982 1107 758 869 982 b 42 483 279 982 42 758 z m 311 483 b 574 746 311 625 429 746 b 838 483 718 746 838 624 b 815 372 838 442 831 403 l 708 492 l 535 342 l 638 228 b 574 222 618 224 597 222 b 311 483 431 222 311 336 z "},"R":{"ha":944,"x_min":0,"x_max":0,"o":"m 79 0 l 343 0 l 343 301 l 440 301 l 443 301 l 640 0 l 943 0 l 701 358 b 867 635 801 404 867 510 b 519 968 867 821 711 968 l 79 968 z m 343 513 l 343 729 l 513 729 b 604 626 563 729 604 689 b 490 513 604 554 560 513 z "},"S":{"ha":825,"x_min":0,"x_max":0,"o":"m -11 192 b 417 -14 50 96 179 -14 b 803 293 685 -14 803 115 b 568 572 803 421 740 511 b 310 696 386 638 310 626 b 415 756 310 729 344 756 b 590 679 499 756 557 719 l 764 828 b 406 982 701 910 590 982 b 58 692 225 982 58 883 b 282 413 58 544 147 463 b 546 285 421 360 546 354 b 417 215 546 236 497 215 b 175 335 311 215 224 268 z "},"T":{"ha":794,"x_min":0,"x_max":0,"o":"m 268 0 l 532 0 l 532 729 l 788 729 l 788 968 l 7 968 l 7 729 l 268 729 z "},"U":{"ha":1006,"x_min":0,"x_max":0,"o":"m 68 417 b 503 -14 68 124 268 -14 b 938 417 738 -14 938 124 l 938 968 l 674 968 l 674 444 b 503 225 674 278 606 225 b 332 444 400 225 332 278 l 332 968 l 68 968 z "},"V":{"ha":1043,"x_min":0,"x_max":0,"o":"m 400 0 l 643 0 l 1035 968 l 756 968 l 522 375 l 288 968 l 8 968 z "},"W":{"ha":1374,"x_min":0,"x_max":0,"o":"m 311 0 l 544 0 l 686 497 l 829 0 l 1061 0 l 1360 968 l 1101 968 l 936 442 l 793 968 l 581 968 l 438 440 l 272 968 l 14 968 z "},"X":{"ha":961,"x_min":0,"x_max":0,"o":"m 3 0 l 290 0 l 481 296 l 671 0 l 958 0 l 638 494 l 942 968 l 650 968 l 481 700 l 311 968 l 19 968 l 324 494 z "},"Y":{"ha":994,"x_min":0,"x_max":0,"o":"m 367 0 l 628 0 l 628 343 l 993 968 l 710 968 l 497 592 l 285 968 l 1 968 l 367 343 z "},"Z":{"ha":917,"x_min":0,"x_max":0,"o":"m 44 0 l 875 0 l 875 239 l 406 239 l 865 764 l 865 968 l 85 968 l 85 729 l 521 729 l 44 183 z "},"À":{"ha":1025,"x_min":0,"x_max":0,"o":"m 439 1035 l 628 1035 l 560 1236 l 296 1236 z m 8 0 l 286 0 l 338 126 l 710 126 l 760 0 l 1039 0 l 644 968 l 403 968 z m 407 331 l 524 631 l 640 331 z "},"Á":{"ha":1047,"x_min":0,"x_max":0,"o":"m 419 1035 l 608 1035 l 751 1236 l 488 1236 z m 8 0 l 286 0 l 338 126 l 710 126 l 760 0 l 1039 0 l 644 968 l 403 968 z m 407 331 l 524 631 l 640 331 z "},"Â":{"ha":1047,"x_min":0,"x_max":0,"o":"m 243 1050 l 458 1050 l 524 1114 l 590 1050 l 806 1050 l 592 1218 l 457 1218 z m 8 0 l 286 0 l 338 126 l 710 126 l 760 0 l 1039 0 l 644 968 l 403 968 z m 407 331 l 524 631 l 640 331 z "},"Ã":{"ha":1047,"x_min":0,"x_max":0,"o":"m 214 1057 l 350 1035 b 406 1083 357 1074 379 1083 b 636 1022 479 1083 533 1022 b 844 1238 765 1022 826 1107 l 708 1260 b 647 1201 697 1217 678 1201 b 419 1263 574 1201 521 1263 b 214 1057 301 1263 231 1175 z m 8 0 l 286 0 l 338 126 l 710 126 l 760 0 l 1039 0 l 644 968 l 403 968 z m 407 331 l 524 631 l 640 331 z "},"Ä":{"ha":1047,"x_min":0,"x_max":0,"o":"m 747 951 b 863 1061 811 951 863 1001 b 747 1171 863 1122 811 1171 b 632 1061 683 1171 632 1121 b 747 951 632 1001 683 951 z m 301 951 b 417 1061 365 951 417 1001 b 301 1171 417 1122 365 1171 b 186 1061 238 1171 186 1121 b 301 951 186 1001 238 951 z m 8 0 l 286 0 l 338 126 l 710 126 l 760 0 l 1039 0 l 644 968 l 403 968 z m 407 331 l 524 631 l 640 331 z "},"Ā":{"ha":1047,"x_min":0,"x_max":0,"o":"m 296 1042 l 751 1042 l 751 1193 l 296 1193 z m 8 0 l 286 0 l 338 126 l 710 126 l 760 0 l 1039 0 l 644 968 l 403 968 z m 407 331 l 524 631 l 640 331 z "},"Ă":{"ha":1047,"x_min":0,"x_max":0,"o":"m 524 1035 b 782 1239 683 1035 767 1140 l 610 1239 b 524 1190 599 1211 571 1190 b 438 1239 476 1190 449 1211 l 265 1239 b 524 1035 281 1140 364 1035 z m 8 0 l 286 0 l 338 126 l 710 126 l 760 0 l 1039 0 l 644 968 l 403 968 z m 407 331 l 524 631 l 640 331 z "},"Å":{"ha":1047,"x_min":0,"x_max":0,"o":"m 8 0 l 286 0 l 338 126 l 710 126 l 760 0 l 1039 0 l 658 894 b 713 1017 692 926 713 969 b 529 1189 713 1111 631 1189 b 343 1017 426 1189 343 1111 b 393 899 343 971 363 929 z m 529 969 b 481 1017 503 969 481 990 b 529 1064 481 1043 503 1064 b 576 1017 556 1064 576 1043 b 529 969 576 990 556 969 z m 407 331 l 524 622 l 640 331 z "},"Ǻ":{"ha":1047,"x_min":0,"x_max":0,"o":"m 433 1260 l 622 1260 l 765 1461 l 501 1461 z m 8 0 l 286 0 l 338 126 l 710 126 l 760 0 l 1039 0 l 658 894 b 713 1017 692 926 713 969 b 529 1189 713 1111 631 1189 b 343 1017 426 1189 343 1111 b 393 899 343 971 363 929 z m 529 969 b 481 1017 503 969 481 990 b 529 1064 481 1043 503 1064 b 576 1017 556 1064 576 1043 b 529 969 576 990 556 969 z m 407 331 l 524 622 l 640 331 z "},"Ą":{"ha":1047,"x_min":0,"x_max":0,"o":"m 8 0 l 286 0 l 338 126 l 710 126 l 760 0 l 894 0 b 790 -151 843 -32 790 -83 b 986 -317 790 -254 888 -317 b 1065 -297 1013 -317 1040 -310 l 1097 -146 b 1017 -160 1071 -154 1046 -160 b 947 -118 982 -160 947 -147 b 1039 0 947 -68 1003 -24 l 644 968 l 403 968 z m 407 331 l 524 631 l 640 331 z "},"Æ":{"ha":1333,"x_min":0,"x_max":0,"o":"m -64 0 l 232 0 l 339 126 l 668 126 l 668 0 l 1278 0 l 1278 233 l 928 233 l 928 381 l 1240 381 l 1240 597 l 928 597 l 928 731 l 1267 731 l 1267 968 l 733 968 z m 500 331 l 668 533 l 668 331 z "},"Ǽ":{"ha":1333,"x_min":0,"x_max":0,"o":"m 719 1035 l 908 1035 l 1051 1236 l 788 1236 z m -64 0 l 232 0 l 339 126 l 668 126 l 668 0 l 1278 0 l 1278 233 l 928 233 l 928 381 l 1240 381 l 1240 597 l 928 597 l 928 731 l 1267 731 l 1267 968 l 733 968 z m 500 331 l 668 533 l 668 331 z "},"Ć":{"ha":989,"x_min":0,"x_max":0,"o":"m 444 1035 l 633 1035 l 776 1236 l 513 1236 z m 42 483 b 569 -14 42 196 278 -14 b 971 175 731 -14 874 60 l 792 325 b 569 222 735 261 656 222 b 306 483 424 222 306 332 b 569 746 306 635 424 746 b 792 643 656 746 735 707 l 971 793 b 569 982 874 908 731 982 b 42 483 278 982 42 771 z "},"Ĉ":{"ha":989,"x_min":0,"x_max":0,"o":"m 292 1050 l 507 1050 l 572 1114 l 639 1050 l 854 1050 l 640 1218 l 506 1218 z m 42 483 b 569 -14 42 196 278 -14 b 971 175 731 -14 874 60 l 792 325 b 569 222 735 261 656 222 b 306 483 424 222 306 332 b 569 746 306 635 424 746 b 792 643 656 746 735 707 l 971 793 b 569 982 874 908 731 982 b 42 483 278 982 42 771 z "},"Č":{"ha":989,"x_min":0,"x_max":0,"o":"m 503 1068 l 638 1068 l 851 1236 l 636 1236 l 569 1172 l 504 1236 l 289 1236 z m 42 483 b 569 -14 42 196 278 -14 b 971 175 731 -14 874 60 l 792 325 b 569 222 735 261 656 222 b 306 483 424 222 306 332 b 569 746 306 635 424 746 b 792 643 656 746 735 707 l 971 793 b 569 982 874 908 731 982 b 42 483 278 982 42 771 z "},"Ċ":{"ha":989,"x_min":0,"x_max":0,"o":"m 567 1018 b 685 1131 632 1018 685 1069 b 567 1243 685 1192 632 1243 b 449 1131 501 1243 449 1192 b 567 1018 449 1069 501 1018 z m 42 483 b 569 -14 42 196 278 -14 b 971 175 731 -14 874 60 l 792 325 b 569 222 735 261 656 222 b 306 483 424 222 306 332 b 569 746 306 635 424 746 b 792 643 656 746 735 707 l 971 793 b 569 982 874 908 731 982 b 42 483 278 982 42 771 z "},"Ç":{"ha":989,"x_min":0,"x_max":0,"o":"m 42 483 b 486 -8 42 224 235 26 l 446 -106 b 519 -153 493 -106 519 -115 b 472 -192 519 -176 499 -192 b 411 -175 446 -192 432 -187 l 364 -275 b 507 -317 394 -297 451 -317 b 686 -169 615 -317 686 -264 b 594 -64 686 -104 644 -64 l 617 -11 l 618 -11 b 971 175 758 1 883 71 l 792 325 b 569 222 735 261 656 222 b 306 483 424 222 306 332 b 569 746 306 635 424 746 b 792 643 656 746 735 707 l 971 793 b 569 982 874 908 731 982 b 42 483 278 982 42 771 z "},"Ď":{"ha":1033,"x_min":0,"x_max":0,"o":"m 414 1068 l 549 1068 l 763 1236 l 547 1236 l 481 1172 l 415 1236 l 200 1236 z m 79 0 l 474 0 b 992 482 821 0 992 197 b 472 968 992 758 819 968 l 79 968 z m 343 239 l 343 718 l 456 718 b 726 482 689 718 726 610 b 457 239 726 353 689 239 z "},"Đ":{"ha":1051,"x_min":0,"x_max":0,"o":"m 97 0 l 492 0 b 1010 482 839 0 1010 197 b 490 968 1010 758 838 968 l 97 968 l 97 601 l -4 601 l -4 363 l 97 363 z m 361 239 l 361 363 l 544 363 l 544 601 l 361 601 l 361 718 l 474 718 b 744 482 707 718 744 610 b 475 239 744 353 707 239 z "},"È":{"ha":860,"x_min":0,"x_max":0,"o":"m 381 1035 l 561 1035 l 488 1236 l 251 1236 z m 79 0 l 804 0 l 804 233 l 343 233 l 343 381 l 763 381 l 763 597 l 343 597 l 343 731 l 793 731 l 793 968 l 79 968 z "},"É":{"ha":860,"x_min":0,"x_max":0,"o":"m 332 1035 l 521 1035 l 664 1236 l 400 1236 z m 79 0 l 804 0 l 804 233 l 343 233 l 343 381 l 763 381 l 763 597 l 343 597 l 343 731 l 793 731 l 793 968 l 79 968 z "},"Ê":{"ha":860,"x_min":0,"x_max":0,"o":"m 160 1050 l 375 1050 l 440 1114 l 507 1050 l 722 1050 l 508 1218 l 374 1218 z m 79 0 l 804 0 l 804 233 l 343 233 l 343 381 l 763 381 l 763 597 l 343 597 l 343 731 l 793 731 l 793 968 l 79 968 z "},"Ě":{"ha":860,"x_min":0,"x_max":0,"o":"m 374 1068 l 508 1068 l 722 1236 l 507 1236 l 440 1172 l 375 1236 l 160 1236 z m 79 0 l 804 0 l 804 233 l 343 233 l 343 381 l 763 381 l 763 597 l 343 597 l 343 731 l 793 731 l 793 968 l 79 968 z "},"Ë":{"ha":860,"x_min":0,"x_max":0,"o":"m 583 1018 b 699 1128 647 1018 699 1068 b 583 1238 699 1189 647 1238 b 468 1128 519 1238 468 1188 b 583 1018 468 1068 519 1018 z m 292 1018 b 407 1128 356 1018 407 1068 b 292 1238 407 1189 356 1238 b 176 1128 228 1238 176 1188 b 292 1018 176 1068 228 1018 z m 79 0 l 804 0 l 804 233 l 343 233 l 343 381 l 763 381 l 763 597 l 343 597 l 343 731 l 793 731 l 793 968 l 79 968 z "},"Ē":{"ha":860,"x_min":0,"x_max":0,"o":"m 208 1042 l 664 1042 l 664 1193 l 208 1193 z m 79 0 l 804 0 l 804 233 l 343 233 l 343 381 l 763 381 l 763 597 l 343 597 l 343 731 l 793 731 l 793 968 l 79 968 z "},"Ĕ":{"ha":860,"x_min":0,"x_max":0,"o":"m 436 1035 b 694 1239 596 1035 679 1140 l 522 1239 b 436 1190 511 1211 483 1190 b 350 1239 389 1190 361 1211 l 178 1239 b 436 1035 193 1140 276 1035 z m 79 0 l 804 0 l 804 233 l 343 233 l 343 381 l 763 381 l 763 597 l 343 597 l 343 731 l 793 731 l 793 968 l 79 968 z "},"Ė":{"ha":860,"x_min":0,"x_max":0,"o":"m 433 1018 b 551 1131 499 1018 551 1069 b 433 1243 551 1192 499 1243 b 315 1131 368 1243 315 1192 b 433 1018 315 1069 368 1018 z m 79 0 l 804 0 l 804 233 l 343 233 l 343 381 l 763 381 l 763 597 l 343 597 l 343 731 l 793 731 l 793 968 l 79 968 z "},"Ę":{"ha":860,"x_min":0,"x_max":0,"o":"m 79 0 l 660 0 b 556 -151 608 -32 556 -83 b 751 -317 556 -254 653 -317 b 831 -297 778 -317 806 -310 l 863 -146 b 782 -160 836 -154 811 -160 b 713 -118 747 -160 713 -147 b 804 0 713 -68 768 -24 l 804 233 l 343 233 l 343 381 l 763 381 l 763 597 l 343 597 l 343 731 l 793 731 l 793 968 l 79 968 z "},"Ĝ":{"ha":1054,"x_min":0,"x_max":0,"o":"m 282 1050 l 497 1050 l 563 1114 l 629 1050 l 844 1050 l 631 1218 l 496 1218 z m 42 483 b 569 -14 42 196 278 -14 b 999 201 753 -14 911 75 l 999 590 l 521 590 l 521 371 l 771 371 l 771 306 b 569 222 724 251 653 222 b 306 483 424 222 306 332 b 569 746 306 635 424 746 b 783 660 651 746 729 715 l 963 810 b 569 982 865 917 726 982 b 42 483 278 982 42 771 z "},"Ğ":{"ha":1054,"x_min":0,"x_max":0,"o":"m 561 1035 b 819 1239 721 1035 804 1140 l 647 1239 b 561 1190 636 1211 608 1190 b 475 1239 514 1190 486 1211 l 303 1239 b 561 1035 318 1140 401 1035 z m 42 483 b 569 -14 42 196 278 -14 b 999 201 753 -14 911 75 l 999 590 l 521 590 l 521 371 l 771 371 l 771 306 b 569 222 724 251 653 222 b 306 483 424 222 306 332 b 569 746 306 635 424 746 b 783 660 651 746 729 715 l 963 810 b 569 982 865 917 726 982 b 42 483 278 982 42 771 z "},"Ġ":{"ha":1054,"x_min":0,"x_max":0,"o":"m 561 1018 b 679 1131 626 1018 679 1069 b 561 1243 679 1192 626 1243 b 443 1131 496 1243 443 1192 b 561 1018 443 1069 496 1018 z m 42 483 b 569 -14 42 196 278 -14 b 999 201 753 -14 911 75 l 999 590 l 521 590 l 521 371 l 771 371 l 771 306 b 569 222 724 251 653 222 b 306 483 424 222 306 332 b 569 746 306 635 424 746 b 783 660 651 746 729 715 l 963 810 b 569 982 865 917 726 982 b 42 483 278 982 42 771 z "},"Ģ":{"ha":1054,"x_min":0,"x_max":0,"o":"m 42 483 b 569 -14 42 196 278 -14 b 999 201 753 -14 911 75 l 999 590 l 521 590 l 521 371 l 771 371 l 771 306 b 569 222 724 251 653 222 b 306 483 424 222 306 332 b 569 746 306 635 424 746 b 783 660 651 746 729 715 l 963 810 b 569 982 865 917 726 982 b 42 483 278 982 42 771 z m 371 -268 l 560 -268 l 703 -67 l 439 -67 z "},"Ĥ":{"ha":1050,"x_min":0,"x_max":0,"o":"m 254 1050 l 469 1050 l 535 1114 l 601 1050 l 817 1050 l 603 1218 l 468 1218 z m 79 0 l 343 0 l 343 390 l 707 390 l 707 0 l 971 0 l 971 968 l 707 968 l 707 632 l 343 632 l 343 968 l 79 968 z "},"Ħ":{"ha":1064,"x_min":0,"x_max":0,"o":"m 86 0 l 350 0 l 350 390 l 714 390 l 714 0 l 978 0 l 978 693 l 1040 693 l 1040 889 l 978 889 l 978 968 l 714 968 l 714 889 l 350 889 l 350 968 l 86 968 l 86 889 l 24 889 l 24 693 l 86 693 z m 350 632 l 350 693 l 714 693 l 714 632 z "},"Ì":{"ha":433,"x_min":0,"x_max":0,"o":"m 154 1035 l 343 1035 l 275 1236 l 11 1236 z m 85 0 l 349 0 l 349 968 l 85 968 z "},"Í":{"ha":433,"x_min":0,"x_max":0,"o":"m 90 1035 l 279 1035 l 422 1236 l 158 1236 z m 85 0 l 349 0 l 349 968 l 85 968 z "},"Î":{"ha":433,"x_min":0,"x_max":0,"o":"m -64 1050 l 151 1050 l 217 1114 l 283 1050 l 499 1050 l 285 1218 l 150 1218 z m 85 0 l 349 0 l 349 968 l 85 968 z "},"Ĩ":{"ha":433,"x_min":0,"x_max":0,"o":"m 43 1035 b 99 1083 49 1074 72 1083 b 318 1022 169 1083 221 1022 b 526 1238 447 1022 508 1107 l 390 1260 b 329 1201 379 1217 360 1201 b 113 1263 258 1201 208 1263 b -93 1057 -6 1263 -76 1175 z m 85 0 l 349 0 l 349 968 l 85 968 z "},"Ï":{"ha":433,"x_min":0,"x_max":0,"o":"m 363 1018 b 478 1128 426 1018 478 1068 b 363 1238 478 1189 426 1238 b 247 1128 299 1238 247 1188 b 363 1018 247 1068 299 1018 z m 71 1018 b 186 1128 135 1018 186 1068 b 71 1238 186 1189 135 1238 b -44 1128 7 1238 -44 1188 b 71 1018 -44 1068 7 1018 z m 85 0 l 349 0 l 349 968 l 85 968 z "},"Ī":{"ha":433,"x_min":0,"x_max":0,"o":"m -11 1042 l 444 1042 l 444 1193 l -11 1193 z m 85 0 l 349 0 l 349 968 l 85 968 z "},"Ĭ":{"ha":433,"x_min":0,"x_max":0,"o":"m 217 1035 b 475 1239 376 1035 460 1140 l 303 1239 b 217 1190 292 1211 264 1190 b 131 1239 169 1190 142 1211 l -42 1239 b 217 1035 -26 1140 57 1035 z m 85 0 l 349 0 l 349 968 l 85 968 z "},"İ":{"ha":433,"x_min":0,"x_max":0,"o":"m 217 1018 b 335 1131 282 1018 335 1069 b 217 1243 335 1192 282 1243 b 99 1131 151 1243 99 1192 b 217 1018 99 1069 151 1018 z m 85 0 l 349 0 l 349 968 l 85 968 z "},"Į":{"ha":433,"x_min":0,"x_max":0,"o":"m 85 0 l 204 0 b 100 -151 153 -32 100 -83 b 296 -317 100 -254 197 -317 b 375 -297 322 -317 350 -310 l 407 -146 b 326 -160 381 -154 356 -160 b 257 -118 292 -160 257 -147 b 349 0 257 -68 313 -24 l 349 968 l 85 968 z "},"Ĳ":{"ha":781,"x_min":0,"x_max":0,"o":"m 94 10 b 346 -14 189 -8 268 -14 b 694 321 669 -14 694 154 l 694 968 l 431 968 l 431 331 b 308 225 431 271 415 225 b 94 246 240 225 146 232 z m 94 294 l 358 294 l 358 968 l 94 968 z "},"Ĵ":{"ha":543,"x_min":0,"x_max":0,"o":"m 64 1050 l 279 1050 l 344 1114 l 411 1050 l 626 1050 l 413 1218 l 278 1218 z m 8 -4 b 135 -14 53 -11 94 -14 b 483 363 458 -14 483 175 l 483 968 l 219 968 l 219 344 b 97 222 219 279 204 222 b 8 229 67 222 31 224 z "},"Ķ":{"ha":986,"x_min":0,"x_max":0,"o":"m 79 0 l 343 0 l 343 249 l 439 360 l 685 0 l 996 0 l 621 539 l 983 968 l 674 968 l 343 575 l 343 968 l 79 968 z m 315 -268 l 504 -268 l 647 -67 l 383 -67 z "},"Ĺ":{"ha":739,"x_min":0,"x_max":0,"o":"m 85 1035 l 274 1035 l 417 1236 l 153 1236 z m 79 0 l 711 0 l 711 239 l 343 239 l 343 968 l 79 968 z "},"Ľ":{"ha":739,"x_min":0,"x_max":0,"o":"m 79 0 l 711 0 l 711 239 l 343 239 l 343 968 l 79 968 z m 397 767 l 586 767 l 729 968 l 465 968 z "},"Ļ":{"ha":739,"x_min":0,"x_max":0,"o":"m 79 0 l 711 0 l 711 239 l 343 239 l 343 968 l 79 968 z m 268 -67 l 200 -268 l 389 -268 l 532 -67 z "},"Ŀ":{"ha":739,"x_min":0,"x_max":0,"o":"m 79 0 l 711 0 l 711 239 l 343 239 l 343 968 l 79 968 z m 551 469 b 669 582 617 469 669 521 b 551 694 669 643 617 694 b 433 582 486 694 433 643 b 551 469 433 521 486 469 z "},"Ł":{"ha":771,"x_min":0,"x_max":0,"o":"m 111 0 l 743 0 l 743 239 l 375 239 l 375 404 l 560 490 l 560 732 l 375 646 l 375 968 l 111 968 l 111 540 l 24 500 l 24 258 l 111 299 z "},"Ń":{"ha":1053,"x_min":0,"x_max":0,"o":"m 401 1035 l 590 1035 l 733 1236 l 469 1236 z m 79 0 l 332 0 l 332 540 l 758 0 l 974 0 l 974 968 l 721 968 l 721 449 l 315 968 l 79 968 z "},"Ň":{"ha":1053,"x_min":0,"x_max":0,"o":"m 451 1068 l 586 1068 l 800 1236 l 585 1236 l 518 1172 l 453 1236 l 238 1236 z m 79 0 l 332 0 l 332 540 l 758 0 l 974 0 l 974 968 l 721 968 l 721 449 l 315 968 l 79 968 z "},"Ñ":{"ha":1053,"x_min":0,"x_max":0,"o":"m 210 1057 l 346 1035 b 401 1083 353 1074 375 1083 b 632 1022 475 1083 529 1022 b 840 1238 761 1022 822 1107 l 704 1260 b 643 1201 693 1217 674 1201 b 415 1263 569 1201 517 1263 b 210 1057 297 1263 226 1175 z m 79 0 l 332 0 l 332 540 l 758 0 l 974 0 l 974 968 l 721 968 l 721 449 l 315 968 l 79 968 z "},"Ņ":{"ha":1053,"x_min":0,"x_max":0,"o":"m 368 -268 l 557 -268 l 700 -67 l 436 -67 z m 79 0 l 332 0 l 332 540 l 758 0 l 974 0 l 974 968 l 721 968 l 721 449 l 315 968 l 79 968 z "},"Ò":{"ha":1151,"x_min":0,"x_max":0,"o":"m 476 1035 l 665 1035 l 597 1236 l 333 1236 z m 42 481 b 575 -19 42 204 279 -19 b 1110 481 872 -19 1110 204 b 575 982 1110 757 872 982 b 42 481 279 982 42 757 z m 311 481 b 575 746 311 624 429 746 b 840 481 721 746 840 622 b 575 217 840 338 719 217 b 311 481 431 217 311 332 z "},"Ó":{"ha":1151,"x_min":0,"x_max":0,"o":"m 479 1035 l 668 1035 l 811 1236 l 547 1236 z m 42 481 b 575 -19 42 204 279 -19 b 1110 481 872 -19 1110 204 b 575 982 1110 757 872 982 b 42 481 279 982 42 757 z m 311 481 b 575 746 311 624 429 746 b 840 481 721 746 840 622 b 575 217 840 338 719 217 b 311 481 431 217 311 332 z "},"Ô":{"ha":1151,"x_min":0,"x_max":0,"o":"m 296 1035 l 511 1035 l 576 1099 l 643 1035 l 858 1035 l 644 1203 l 510 1203 z m 42 481 b 575 -19 42 204 279 -19 b 1110 481 872 -19 1110 204 b 575 982 1110 757 872 982 b 42 481 279 982 42 757 z m 311 481 b 575 746 311 624 429 746 b 840 481 721 746 840 622 b 575 217 840 338 719 217 b 311 481 431 217 311 332 z "},"Õ":{"ha":1151,"x_min":0,"x_max":0,"o":"m 261 1057 l 397 1035 b 453 1083 404 1074 426 1083 b 683 1022 526 1083 581 1022 b 892 1238 813 1022 874 1107 l 756 1260 b 694 1201 744 1217 725 1201 b 467 1263 621 1201 568 1263 b 261 1057 349 1263 278 1175 z m 42 481 b 575 -19 42 204 279 -19 b 1110 481 872 -19 1110 204 b 575 982 1110 757 872 982 b 42 481 279 982 42 757 z m 311 481 b 575 746 311 624 429 746 b 840 481 721 746 840 622 b 575 217 840 338 719 217 b 311 481 431 217 311 332 z "},"Ö":{"ha":1151,"x_min":0,"x_max":0,"o":"m 722 1018 b 838 1128 786 1018 838 1068 b 722 1238 838 1189 786 1238 b 607 1128 658 1238 607 1188 b 722 1018 607 1068 658 1018 z m 431 1018 b 546 1128 494 1018 546 1068 b 431 1238 546 1189 494 1238 b 315 1128 367 1238 315 1188 b 431 1018 315 1068 367 1018 z m 42 481 b 575 -19 42 204 279 -19 b 1110 481 872 -19 1110 204 b 575 982 1110 757 872 982 b 42 481 279 982 42 757 z m 311 481 b 575 746 311 624 429 746 b 840 481 721 746 840 622 b 575 217 840 338 719 217 b 311 481 431 217 311 332 z "},"Ō":{"ha":1151,"x_min":0,"x_max":0,"o":"m 349 1042 l 804 1042 l 804 1193 l 349 1193 z m 42 481 b 575 -19 42 204 279 -19 b 1110 481 872 -19 1110 204 b 575 982 1110 757 872 982 b 42 481 279 982 42 757 z m 311 481 b 575 746 311 624 429 746 b 840 481 721 746 840 622 b 575 217 840 338 719 217 b 311 481 431 217 311 332 z "},"Ŏ":{"ha":1151,"x_min":0,"x_max":0,"o":"m 574 1035 b 832 1239 733 1035 817 1140 l 660 1239 b 574 1190 649 1211 621 1190 b 488 1239 526 1190 499 1211 l 315 1239 b 574 1035 331 1140 414 1035 z m 42 481 b 575 -19 42 204 279 -19 b 1110 481 872 -19 1110 204 b 575 982 1110 757 872 982 b 42 481 279 982 42 757 z m 311 481 b 575 746 311 624 429 746 b 840 481 721 746 840 622 b 575 217 840 338 719 217 b 311 481 431 217 311 332 z "},"Ő":{"ha":1151,"x_min":0,"x_max":0,"o":"m 614 1035 l 790 1035 l 965 1236 l 717 1236 z m 343 1035 l 519 1035 l 694 1236 l 446 1236 z m 42 481 b 575 -19 42 204 279 -19 b 1110 481 872 -19 1110 204 b 575 982 1110 757 872 982 b 42 481 279 982 42 757 z m 311 481 b 575 746 311 624 429 746 b 840 481 721 746 840 622 b 575 217 840 338 719 217 b 311 481 431 217 311 332 z "},"Ø":{"ha":1149,"x_min":0,"x_max":0,"o":"m 93 43 l 263 -92 l 354 25 b 574 -19 421 -3 496 -19 b 1110 483 871 -19 1110 206 b 976 813 1110 608 1060 725 l 1057 914 l 888 1049 l 799 936 b 574 982 731 965 654 982 b 42 483 279 982 42 758 b 176 149 42 354 92 238 z m 342 358 b 311 483 322 396 311 438 b 574 746 311 625 429 746 b 640 736 596 746 619 742 z m 515 228 l 808 600 b 838 483 826 564 838 524 b 574 222 838 342 717 222 b 515 228 553 222 533 224 z "},"Ǿ":{"ha":1149,"x_min":0,"x_max":0,"o":"m 479 1035 l 668 1035 l 811 1236 l 547 1236 z m 93 43 l 263 -92 l 354 25 b 574 -19 421 -3 496 -19 b 1110 483 871 -19 1110 206 b 976 813 1110 608 1060 725 l 1057 914 l 888 1049 l 799 936 b 574 982 731 965 654 982 b 42 483 279 982 42 758 b 176 149 42 354 92 238 z m 342 358 b 311 483 322 396 311 438 b 574 746 311 625 429 746 b 640 736 596 746 619 742 z m 515 228 l 808 600 b 838 483 826 564 838 524 b 574 222 838 342 717 222 b 515 228 553 222 533 224 z "},"Œ":{"ha":1474,"x_min":0,"x_max":0,"o":"m 39 483 b 557 -14 39 208 271 -14 b 808 65 654 -14 743 17 l 808 0 l 1418 0 l 1418 233 l 1068 233 l 1068 381 l 1381 381 l 1381 597 l 1068 597 l 1068 731 l 1407 731 l 1407 968 l 808 968 l 808 901 b 557 982 743 950 656 982 b 39 483 271 982 39 758 z m 308 483 b 574 746 308 625 428 746 b 840 483 719 746 840 624 b 574 222 840 342 718 222 b 308 483 429 222 308 336 z "},"Ŕ":{"ha":944,"x_min":0,"x_max":0,"o":"m 336 1035 l 525 1035 l 668 1236 l 404 1236 z m 79 0 l 343 0 l 343 301 l 442 301 l 443 301 l 640 0 l 943 0 l 701 358 b 867 635 801 404 867 510 b 519 968 867 821 711 968 l 79 968 z m 343 513 l 343 729 l 513 729 b 604 626 563 729 604 689 b 490 513 604 554 560 513 z "},"Ř":{"ha":944,"x_min":0,"x_max":0,"o":"m 378 1068 l 513 1068 l 726 1236 l 511 1236 l 444 1172 l 379 1236 l 164 1236 z m 79 0 l 343 0 l 343 301 l 442 301 l 443 301 l 640 0 l 943 0 l 701 358 b 867 635 801 404 867 510 b 519 968 867 821 711 968 l 79 968 z m 343 513 l 343 729 l 513 729 b 604 626 563 729 604 689 b 490 513 604 554 560 513 z "},"Ŗ":{"ha":944,"x_min":0,"x_max":0,"o":"m 79 0 l 343 0 l 343 301 l 442 301 l 443 301 l 640 0 l 943 0 l 701 358 b 867 635 801 404 867 510 b 519 968 867 821 711 968 l 79 968 z m 343 513 l 343 729 l 513 729 b 604 626 563 729 604 689 b 490 513 604 554 560 513 z m 358 -67 l 290 -268 l 479 -268 l 622 -67 z "},"Ś":{"ha":825,"x_min":0,"x_max":0,"o":"m 308 1035 l 497 1035 l 640 1236 l 376 1236 z m -11 192 b 417 -14 50 96 179 -14 b 803 293 685 -14 803 115 b 568 572 803 421 740 511 b 310 696 386 638 310 626 b 415 756 310 729 344 756 b 590 679 499 756 557 719 l 764 828 b 406 982 701 910 590 982 b 58 692 225 982 58 883 b 282 413 58 544 147 463 b 546 285 421 360 546 354 b 417 215 546 236 497 215 b 175 335 311 215 224 268 z "},"Ŝ":{"ha":825,"x_min":0,"x_max":0,"o":"m 136 1035 l 351 1035 l 417 1099 l 483 1035 l 699 1035 l 485 1203 l 350 1203 z m -11 192 b 417 -14 50 96 179 -14 b 803 293 685 -14 803 115 b 568 572 803 421 740 511 b 310 696 386 638 310 626 b 415 756 310 729 344 756 b 590 679 499 756 557 719 l 764 828 b 406 982 701 910 590 982 b 58 692 225 982 58 883 b 282 413 58 544 147 463 b 546 285 421 360 546 354 b 417 215 546 236 497 215 b 175 335 311 215 224 268 z "},"Š":{"ha":825,"x_min":0,"x_max":0,"o":"m 378 1068 l 513 1068 l 726 1236 l 511 1236 l 444 1172 l 379 1236 l 164 1236 z m -11 192 b 417 -14 50 96 179 -14 b 803 293 685 -14 803 115 b 568 572 803 421 740 511 b 310 696 386 638 310 626 b 415 756 310 729 344 756 b 590 679 499 756 557 719 l 764 828 b 406 982 701 910 590 982 b 58 692 225 982 58 883 b 282 413 58 544 147 463 b 546 285 421 360 546 354 b 417 215 546 236 497 215 b 175 335 311 215 224 268 z "},"Ș":{"ha":825,"x_min":0,"x_max":0,"o":"m -11 192 b 417 -14 50 96 179 -14 b 803 293 685 -14 803 115 b 568 572 803 421 740 511 b 310 696 386 638 310 626 b 415 756 310 729 344 756 b 590 679 499 756 557 719 l 764 828 b 406 982 701 910 590 982 b 58 692 225 982 58 883 b 282 413 58 544 147 463 b 546 285 421 360 546 354 b 417 215 546 236 497 215 b 175 335 311 215 224 268 z m 225 -268 l 414 -268 l 557 -67 l 293 -67 z "},"Ş":{"ha":825,"x_min":0,"x_max":0,"o":"m -11 192 b 349 -10 43 106 154 8 l 310 -106 b 383 -153 357 -106 383 -115 b 336 -192 383 -176 363 -192 b 275 -175 310 -192 296 -187 l 228 -275 b 371 -317 258 -297 315 -317 b 550 -169 479 -317 550 -264 b 458 -64 550 -104 508 -64 l 481 -11 b 803 293 703 8 803 131 b 568 572 803 421 740 511 b 310 696 386 638 310 626 b 415 756 310 729 344 756 b 590 679 499 756 557 719 l 764 828 b 406 982 701 910 590 982 b 58 692 225 982 58 883 b 282 413 58 544 147 463 b 546 285 421 360 546 354 b 417 215 546 236 497 215 b 175 335 311 215 224 268 z "},"Ť":{"ha":794,"x_min":0,"x_max":0,"o":"m 331 1068 l 465 1068 l 679 1236 l 464 1236 l 397 1172 l 332 1236 l 117 1236 z m 268 0 l 532 0 l 532 729 l 788 729 l 788 968 l 7 968 l 7 729 l 268 729 z "},"Ţ":{"ha":794,"x_min":0,"x_max":0,"o":"m 268 0 l 532 0 l 532 729 l 788 729 l 788 968 l 7 968 l 7 729 l 268 729 z m 267 -67 l 199 -268 l 388 -268 l 531 -67 z "},"Ŧ":{"ha":794,"x_min":0,"x_max":0,"o":"m 268 0 l 532 0 l 532 367 l 671 367 l 671 583 l 532 583 l 532 729 l 788 729 l 788 968 l 7 968 l 7 729 l 268 729 l 268 583 l 124 583 l 124 367 l 268 367 z "},"Ù":{"ha":1006,"x_min":0,"x_max":0,"o":"m 432 1035 l 621 1035 l 553 1236 l 289 1236 z m 68 417 b 503 -14 68 124 268 -14 b 938 417 738 -14 938 124 l 938 968 l 674 968 l 674 444 b 503 225 674 278 606 225 b 332 444 400 225 332 278 l 332 968 l 68 968 z "},"Ú":{"ha":1006,"x_min":0,"x_max":0,"o":"m 403 1035 l 592 1035 l 735 1236 l 471 1236 z m 68 417 b 503 -14 68 124 268 -14 b 938 417 738 -14 938 124 l 938 968 l 674 968 l 674 444 b 503 225 674 278 606 225 b 332 444 400 225 332 278 l 332 968 l 68 968 z "},"Û":{"ha":1006,"x_min":0,"x_max":0,"o":"m 222 1035 l 438 1035 l 503 1099 l 569 1035 l 785 1035 l 571 1203 l 436 1203 z m 68 417 b 503 -14 68 124 268 -14 b 938 417 738 -14 938 124 l 938 968 l 674 968 l 674 444 b 503 225 674 278 606 225 b 332 444 400 225 332 278 l 332 968 l 68 968 z "},"Ũ":{"ha":1006,"x_min":0,"x_max":0,"o":"m 194 1057 l 331 1035 b 386 1083 338 1074 360 1083 b 617 1022 460 1083 514 1022 b 825 1238 746 1022 807 1107 l 689 1260 b 628 1201 678 1217 658 1201 b 400 1263 554 1201 501 1263 b 194 1057 282 1263 211 1175 z m 68 417 b 503 -14 68 124 268 -14 b 938 417 738 -14 938 124 l 938 968 l 674 968 l 674 444 b 503 225 674 278 606 225 b 332 444 400 225 332 278 l 332 968 l 68 968 z "},"Ü":{"ha":1006,"x_min":0,"x_max":0,"o":"m 649 1018 b 764 1128 713 1018 764 1068 b 649 1238 764 1189 713 1238 b 533 1128 585 1238 533 1188 b 649 1018 533 1068 585 1018 z m 357 1018 b 472 1128 421 1018 472 1068 b 357 1238 472 1189 421 1238 b 242 1128 293 1238 242 1188 b 357 1018 242 1068 293 1018 z m 68 417 b 503 -14 68 124 268 -14 b 938 417 738 -14 938 124 l 938 968 l 674 968 l 674 444 b 503 225 674 278 606 225 b 332 444 400 225 332 278 l 332 968 l 68 968 z "},"Ū":{"ha":1006,"x_min":0,"x_max":0,"o":"m 275 1042 l 731 1042 l 731 1193 l 275 1193 z m 68 417 b 503 -14 68 124 268 -14 b 938 417 738 -14 938 124 l 938 968 l 674 968 l 674 444 b 503 225 674 278 606 225 b 332 444 400 225 332 278 l 332 968 l 68 968 z "},"Ŭ":{"ha":1006,"x_min":0,"x_max":0,"o":"m 503 1035 b 761 1239 663 1035 746 1140 l 589 1239 b 503 1190 578 1211 550 1190 b 417 1239 456 1190 428 1211 l 244 1239 b 503 1035 260 1140 343 1035 z m 68 417 b 503 -14 68 124 268 -14 b 938 417 738 -14 938 124 l 938 968 l 674 968 l 674 444 b 503 225 674 278 606 225 b 332 444 400 225 332 278 l 332 968 l 68 968 z "},"Ů":{"ha":1006,"x_min":0,"x_max":0,"o":"m 503 988 b 686 1160 604 988 686 1065 b 503 1332 686 1254 604 1332 b 317 1160 400 1332 317 1254 b 503 988 317 1065 400 988 z m 503 1113 b 454 1160 476 1113 454 1133 b 503 1207 454 1186 476 1207 b 550 1160 529 1207 550 1186 b 503 1113 550 1133 529 1113 z m 68 417 b 503 -14 68 124 268 -14 b 938 417 738 -14 938 124 l 938 968 l 674 968 l 674 444 b 503 225 674 278 606 225 b 332 444 400 225 332 278 l 332 968 l 68 968 z "},"Ű":{"ha":1006,"x_min":0,"x_max":0,"o":"m 540 1035 l 717 1035 l 892 1236 l 643 1236 z m 269 1035 l 446 1035 l 621 1236 l 372 1236 z m 68 417 b 503 -14 68 124 268 -14 b 938 417 738 -14 938 124 l 938 968 l 674 968 l 674 444 b 503 225 674 278 606 225 b 332 444 400 225 332 278 l 332 968 l 68 968 z "},"Ų":{"ha":1006,"x_min":0,"x_max":0,"o":"m 68 417 b 503 -14 68 124 268 -14 l 508 -14 b 446 -132 474 -43 446 -82 b 642 -297 446 -235 543 -297 b 721 -278 668 -297 696 -290 l 753 -126 b 672 -140 726 -135 701 -140 b 603 -90 628 -140 603 -124 b 778 67 603 -11 686 -3 b 938 417 872 136 938 251 l 938 968 l 674 968 l 674 444 b 503 225 674 278 606 225 b 332 444 400 225 332 278 l 332 968 l 68 968 z "},"Ẁ":{"ha":1374,"x_min":0,"x_max":0,"o":"m 610 1035 l 799 1035 l 731 1236 l 467 1236 z m 311 0 l 544 0 l 686 497 l 829 0 l 1061 0 l 1360 968 l 1101 968 l 936 442 l 793 968 l 581 968 l 438 440 l 272 968 l 14 968 z "},"Ẃ":{"ha":1374,"x_min":0,"x_max":0,"o":"m 569 1035 l 758 1035 l 901 1236 l 638 1236 z m 311 0 l 544 0 l 686 497 l 829 0 l 1061 0 l 1360 968 l 1101 968 l 936 442 l 793 968 l 581 968 l 438 440 l 272 968 l 14 968 z "},"Ŵ":{"ha":1374,"x_min":0,"x_max":0,"o":"m 406 1035 l 621 1035 l 686 1099 l 753 1035 l 968 1035 l 754 1203 l 619 1203 z m 311 0 l 544 0 l 686 497 l 829 0 l 1061 0 l 1360 968 l 1101 968 l 936 442 l 793 968 l 581 968 l 438 440 l 272 968 l 14 968 z "},"Ẅ":{"ha":1374,"x_min":0,"x_max":0,"o":"m 832 1018 b 947 1128 896 1018 947 1068 b 832 1238 947 1189 896 1238 b 717 1128 768 1238 717 1188 b 832 1018 717 1068 768 1018 z m 540 1018 b 656 1128 604 1018 656 1068 b 540 1238 656 1189 604 1238 b 425 1128 476 1238 425 1188 b 540 1018 425 1068 476 1018 z m 311 0 l 544 0 l 686 497 l 829 0 l 1061 0 l 1360 968 l 1101 968 l 936 442 l 793 968 l 581 968 l 438 440 l 272 968 l 14 968 z "},"Ỳ":{"ha":994,"x_min":0,"x_max":0,"o":"m 418 1035 l 607 1035 l 539 1236 l 275 1236 z m 367 0 l 628 0 l 628 343 l 993 968 l 710 968 l 497 592 l 285 968 l 1 968 l 367 343 z "},"Ý":{"ha":994,"x_min":0,"x_max":0,"o":"m 393 1035 l 582 1035 l 725 1236 l 461 1236 z m 367 0 l 628 0 l 628 343 l 993 968 l 710 968 l 497 592 l 285 968 l 1 968 l 367 343 z "},"Ŷ":{"ha":994,"x_min":0,"x_max":0,"o":"m 217 1035 l 432 1035 l 497 1099 l 564 1035 l 779 1035 l 565 1203 l 431 1203 z m 367 0 l 628 0 l 628 343 l 993 968 l 710 968 l 497 592 l 285 968 l 1 968 l 367 343 z "},"Ÿ":{"ha":994,"x_min":0,"x_max":0,"o":"m 643 1018 b 758 1128 707 1018 758 1068 b 643 1238 758 1189 707 1238 b 528 1128 579 1238 528 1188 b 643 1018 528 1068 579 1018 z m 351 1018 b 467 1128 415 1018 467 1068 b 351 1238 467 1189 415 1238 b 236 1128 288 1238 236 1188 b 351 1018 236 1068 288 1018 z m 367 0 l 628 0 l 628 343 l 993 968 l 710 968 l 497 592 l 285 968 l 1 968 l 367 343 z "},"Ź":{"ha":917,"x_min":0,"x_max":0,"o":"m 381 1035 l 569 1035 l 713 1236 l 449 1236 z m 44 0 l 875 0 l 875 239 l 406 239 l 865 764 l 865 968 l 85 968 l 85 729 l 521 729 l 44 183 z "},"Ž":{"ha":917,"x_min":0,"x_max":0,"o":"m 426 1068 l 561 1068 l 775 1236 l 560 1236 l 493 1172 l 428 1236 l 213 1236 z m 44 0 l 875 0 l 875 239 l 406 239 l 865 764 l 865 968 l 85 968 l 85 729 l 521 729 l 44 183 z "},"Ż":{"ha":917,"x_min":0,"x_max":0,"o":"m 500 1018 b 618 1131 565 1018 618 1069 b 500 1243 618 1192 565 1243 b 382 1131 435 1243 382 1192 b 500 1018 382 1069 435 1018 z m 44 0 l 875 0 l 875 239 l 406 239 l 865 764 l 865 968 l 85 968 l 85 729 l 521 729 l 44 183 z "},"Ŋ":{"ha":1033,"x_min":0,"x_max":0,"o":"m 79 0 l 332 0 l 332 551 l 721 88 l 721 69 b 610 -53 721 4 707 -53 b 521 -46 581 -53 543 -51 l 521 -279 b 636 -289 561 -286 600 -289 b 974 88 950 -289 974 -100 l 974 968 l 721 968 l 721 474 l 318 968 l 79 968 z "},"Ð":{"ha":1051,"x_min":0,"x_max":0,"o":"m 97 0 l 492 0 b 1010 482 839 0 1010 197 b 490 968 1010 758 838 968 l 97 968 l 97 601 l -7 601 l -7 363 l 97 363 z m 361 239 l 361 363 l 544 363 l 544 601 l 361 601 l 361 718 l 474 718 b 744 482 707 718 744 610 b 475 239 744 353 707 239 z "},"Þ":{"ha":810,"x_min":0,"x_max":0,"o":"m 79 0 l 343 0 l 343 154 l 428 154 b 779 482 622 154 779 301 b 428 810 779 663 622 810 l 343 810 l 343 968 l 79 968 z m 343 390 l 343 574 l 428 574 b 519 482 478 574 519 532 b 428 390 519 432 478 390 z "},"a":{"ha":926,"x_min":0,"x_max":0,"o":"m 33 350 b 407 -11 33 151 179 -11 b 624 74 521 -11 583 19 b 686 13 639 44 661 25 b 801 -10 721 -6 763 -10 b 908 1 842 -10 888 -4 l 908 217 b 875 214 899 215 885 214 b 824 288 839 214 824 233 l 824 700 l 572 700 l 572 626 b 379 708 547 676 478 708 b 33 350 179 708 33 546 z m 288 350 b 433 483 288 422 353 483 b 579 350 513 483 579 422 b 433 214 579 275 513 214 b 288 350 353 214 288 275 z "},"b":{"ha":888,"x_min":0,"x_max":0,"o":"m 64 0 l 315 0 l 315 74 b 508 -8 340 24 410 -8 b 854 350 708 -8 854 153 b 508 708 854 546 708 708 b 315 626 410 708 340 676 l 315 968 l 64 968 z m 308 350 b 454 483 308 422 375 483 b 600 350 535 483 600 422 b 454 217 600 276 535 217 b 308 350 375 217 308 276 z "},"c":{"ha":751,"x_min":0,"x_max":0,"o":"m 33 353 b 428 -17 33 139 210 -17 b 732 125 531 -17 632 15 l 568 282 b 428 219 531 243 496 219 b 288 353 351 219 288 275 b 428 486 288 431 351 486 b 568 424 496 486 531 463 l 732 581 b 428 722 632 690 531 722 b 33 353 210 722 33 565 z "},"d":{"ha":926,"x_min":0,"x_max":0,"o":"m 33 350 b 407 -11 33 151 179 -11 b 624 74 521 -11 583 19 b 686 13 639 44 661 25 b 801 -10 721 -6 763 -10 b 908 1 842 -10 888 -4 l 908 217 b 875 214 899 215 885 214 b 824 288 839 214 824 233 l 824 968 l 572 968 l 572 626 b 379 708 547 676 478 708 b 33 350 179 708 33 546 z m 288 350 b 433 483 288 422 353 483 b 579 350 513 483 579 422 b 433 214 579 275 513 214 b 288 350 353 214 288 275 z "},"e":{"ha":832,"x_min":0,"x_max":0,"o":"m 33 347 b 432 -15 33 128 194 -15 b 742 114 542 -15 646 18 l 596 253 b 446 199 553 214 504 199 b 290 281 354 199 294 231 l 801 281 b 806 358 806 318 806 358 b 428 717 806 557 654 717 b 33 354 201 717 33 575 z m 292 436 b 428 519 296 482 356 519 b 550 436 494 519 550 481 z "},"f":{"ha":564,"x_min":0,"x_max":0,"o":"m 146 0 l 403 0 l 403 476 l 535 476 l 535 700 l 400 700 l 400 713 b 488 785 400 764 428 785 b 547 778 508 785 531 783 l 547 979 b 450 988 528 982 483 988 b 233 931 382 988 300 985 b 146 701 175 885 146 822 l 146 700 l 29 700 l 29 476 l 146 476 z "},"g":{"ha":882,"x_min":0,"x_max":0,"o":"m 203 -36 l 88 -211 b 436 -306 183 -279 297 -306 b 699 -221 538 -306 633 -274 b 825 117 800 -142 825 -24 l 825 700 l 574 700 l 574 626 b 381 708 549 676 479 708 b 35 350 181 708 35 546 b 381 -3 35 157 181 -3 b 585 72 485 -3 558 28 l 585 69 b 522 -64 585 22 578 -32 b 393 -93 490 -83 444 -93 b 203 -36 324 -93 263 -71 z m 288 350 b 433 483 288 422 353 483 b 579 350 513 483 579 422 b 433 218 579 276 513 218 b 288 350 353 218 288 276 z "},"h":{"ha":858,"x_min":0,"x_max":0,"o":"m 64 0 l 321 0 l 321 385 b 422 497 321 450 364 497 b 514 388 482 497 514 454 l 514 210 b 724 -10 514 61 585 -10 b 835 1 797 -10 835 1 l 835 219 b 815 218 835 219 824 218 b 771 292 781 218 771 242 l 771 414 b 508 717 771 606 681 717 b 321 614 426 717 365 692 l 321 968 l 64 968 z "},"i":{"ha":411,"x_min":0,"x_max":0,"o":"m 64 210 b 274 -10 64 61 135 -10 b 385 1 347 -10 385 1 l 385 219 b 365 218 385 219 374 218 b 321 292 331 218 321 242 l 321 700 l 64 700 z m 192 732 b 333 872 269 732 333 794 b 192 1013 333 950 269 1013 b 50 872 114 1013 50 950 b 192 732 50 794 114 732 z "},"j":{"ha":378,"x_min":0,"x_max":0,"o":"m 190 732 b 332 872 268 732 332 796 b 190 1013 332 950 268 1013 b 49 872 113 1013 49 950 b 190 732 49 796 113 732 z m 63 -4 b -14 -83 63 -62 39 -83 b -57 -81 -25 -83 -42 -82 l -57 -300 b 58 -307 -32 -304 15 -307 b 319 -42 169 -307 319 -274 l 319 700 l 63 700 z "},"k":{"ha":808,"x_min":0,"x_max":0,"o":"m 64 0 l 321 0 l 321 174 l 368 225 l 546 0 l 828 0 l 532 382 l 807 700 l 525 700 l 321 463 l 321 968 l 64 968 z "},"l":{"ha":454,"x_min":0,"x_max":0,"o":"m 58 251 b 321 -17 58 19 210 -17 b 442 -6 367 -17 418 -11 l 442 211 b 392 207 426 208 407 207 b 315 288 339 207 315 229 l 315 968 l 58 968 z "},"m":{"ha":1254,"x_min":0,"x_max":0,"o":"m 64 0 l 321 0 l 321 379 b 410 492 321 446 360 492 b 490 383 461 492 490 449 l 490 0 l 747 0 l 747 379 b 833 492 747 446 783 492 b 910 383 883 492 910 449 l 910 210 b 1119 -10 910 61 981 -10 b 1231 1 1193 -10 1231 1 l 1231 219 b 1211 218 1231 219 1219 218 b 1167 292 1176 218 1167 242 l 1167 414 b 919 717 1167 606 1082 717 b 688 608 814 717 736 681 b 496 717 656 678 589 717 b 321 614 421 717 363 692 l 321 700 l 64 700 z "},"n":{"ha":869,"x_min":0,"x_max":0,"o":"m 64 0 l 321 0 l 321 379 b 428 492 321 446 365 492 b 525 383 490 492 525 449 l 525 210 b 735 -10 525 61 596 -10 b 846 1 808 -10 846 1 l 846 219 b 826 218 846 219 835 218 b 782 292 792 218 782 242 l 782 414 b 514 717 782 606 689 717 b 321 614 431 717 367 692 l 321 700 l 64 700 z "},"o":{"ha":861,"x_min":0,"x_max":0,"o":"m 33 350 b 431 -21 33 146 210 -21 b 828 350 650 -21 828 146 b 431 721 828 553 650 721 b 33 350 210 721 33 553 z m 286 350 b 431 486 286 424 351 486 b 575 350 508 486 575 424 b 431 214 575 275 508 214 b 286 350 351 214 286 275 z "},"p":{"ha":888,"x_min":0,"x_max":0,"o":"m 64 -268 l 315 -268 l 315 74 b 508 -8 340 24 410 -8 b 854 350 708 -8 854 153 b 508 708 854 546 708 708 b 315 626 410 708 340 676 l 315 700 l 64 700 z m 308 350 b 454 483 308 422 375 483 b 600 350 535 483 600 422 b 454 217 600 276 535 217 b 308 350 375 217 308 276 z "},"q":{"ha":879,"x_min":0,"x_max":0,"o":"m 33 350 b 379 -8 33 153 179 -8 b 572 74 478 -8 547 24 l 572 -268 l 824 -268 l 824 700 l 572 700 l 572 626 b 379 708 547 676 478 708 b 33 350 179 708 33 546 z m 288 350 b 433 483 288 422 353 483 b 579 350 513 483 579 422 b 433 217 579 276 513 217 b 288 350 353 217 288 276 z "},"r":{"ha":599,"x_min":0,"x_max":0,"o":"m 64 0 l 321 0 l 321 311 b 508 486 321 422 386 486 b 578 479 533 486 557 483 l 578 713 b 518 717 565 713 539 717 b 321 614 433 717 367 692 l 321 700 l 64 700 z "},"s":{"ha":697,"x_min":0,"x_max":0,"o":"m 10 85 b 343 -21 74 36 168 -21 b 669 231 569 -21 669 81 b 515 419 669 308 638 379 b 293 489 351 474 293 449 b 356 518 293 501 308 518 b 522 474 439 518 493 490 l 622 646 b 364 721 571 678 492 721 b 64 478 215 721 64 646 b 211 290 64 383 121 322 b 433 228 319 253 433 261 b 356 194 433 197 400 194 b 146 257 281 194 196 215 z "},"t":{"ha":517,"x_min":0,"x_max":0,"o":"m 103 250 b 364 -17 103 18 253 -17 b 483 -6 410 -17 460 -11 l 483 213 b 436 207 469 210 450 207 b 360 286 383 207 360 229 l 360 476 l 504 476 l 504 700 l 360 700 l 360 968 l 103 968 l 103 700 l 7 700 l 7 476 l 103 476 z "},"u":{"ha":869,"x_min":0,"x_max":0,"o":"m 58 286 b 349 -19 58 93 157 -19 b 569 69 467 -19 529 13 b 626 14 583 43 604 26 b 744 -10 663 -6 704 -10 b 851 1 785 -10 831 -4 l 851 217 b 818 214 842 215 828 214 b 767 288 782 214 767 233 l 767 700 l 511 700 l 511 321 b 408 206 511 253 467 206 b 315 317 349 206 315 250 l 315 700 l 58 700 z "},"v":{"ha":828,"x_min":0,"x_max":0,"o":"m 294 0 l 533 0 l 833 700 l 575 700 l 414 297 l 253 700 l -6 700 z "},"w":{"ha":1042,"x_min":0,"x_max":0,"o":"m 203 0 l 424 0 l 521 347 l 618 0 l 839 0 l 1046 700 l 814 700 l 717 364 l 622 700 l 419 700 l 325 364 l 228 700 l -4 700 z "},"x":{"ha":796,"x_min":0,"x_max":0,"o":"m -11 0 l 269 0 l 399 178 l 528 0 l 808 0 l 546 367 l 781 700 l 501 700 l 399 554 l 296 700 l 17 700 l 251 367 z "},"y":{"ha":860,"x_min":0,"x_max":0,"o":"m 143 -86 l 143 -297 b 244 -307 169 -303 204 -307 b 457 -242 329 -307 401 -287 b 542 -107 494 -210 519 -165 l 851 700 l 593 700 l 439 264 l 265 700 l 7 700 l 313 -42 l 315 -49 b 300 -82 315 -58 313 -74 b 233 -96 285 -92 267 -96 b 143 -86 206 -96 168 -96 z "},"z":{"ha":764,"x_min":0,"x_max":0,"o":"m 17 0 l 735 0 l 735 224 l 403 224 l 724 518 l 724 700 l 50 700 l 50 476 l 369 476 l 17 164 z "},"à":{"ha":926,"x_min":0,"x_max":0,"o":"m 404 767 l 593 767 l 525 968 l 261 968 z m 33 350 b 407 -11 33 151 179 -11 b 624 74 521 -11 583 19 b 686 13 639 44 661 25 b 801 -10 721 -6 763 -10 b 908 1 842 -10 888 -4 l 908 217 b 875 214 899 215 885 214 b 824 288 839 214 824 233 l 824 700 l 572 700 l 572 626 b 379 708 547 676 478 708 b 33 350 179 708 33 546 z m 288 350 b 433 483 288 422 353 483 b 579 350 513 483 579 422 b 433 214 579 275 513 214 b 288 350 353 214 288 275 z "},"á":{"ha":926,"x_min":0,"x_max":0,"o":"m 368 767 l 557 767 l 700 968 l 436 968 z m 33 350 b 407 -11 33 151 179 -11 b 624 74 521 -11 583 19 b 686 13 639 44 661 25 b 801 -10 721 -6 763 -10 b 908 1 842 -10 888 -4 l 908 217 b 875 214 899 215 885 214 b 824 288 839 214 824 233 l 824 700 l 572 700 l 572 626 b 379 708 547 676 478 708 b 33 350 179 708 33 546 z m 288 350 b 433 483 288 422 353 483 b 579 350 513 483 579 422 b 433 214 579 275 513 214 b 288 350 353 214 288 275 z "},"â":{"ha":926,"x_min":0,"x_max":0,"o":"m 197 767 l 413 767 l 478 831 l 544 767 l 760 767 l 546 935 l 411 935 z m 33 350 b 407 -11 33 151 179 -11 b 624 74 521 -11 583 19 b 686 13 639 44 661 25 b 801 -10 721 -6 763 -10 b 908 1 842 -10 888 -4 l 908 217 b 875 214 899 215 885 214 b 824 288 839 214 824 233 l 824 700 l 572 700 l 572 626 b 379 708 547 676 478 708 b 33 350 179 708 33 546 z m 288 350 b 433 483 288 422 353 483 b 579 350 513 483 579 422 b 433 214 579 275 513 214 b 288 350 353 214 288 275 z "},"ã":{"ha":926,"x_min":0,"x_max":0,"o":"m 146 796 l 282 774 b 338 822 289 813 311 822 b 568 761 411 822 465 761 b 776 969 697 761 758 844 l 640 992 b 579 933 629 949 610 933 b 351 994 506 933 453 994 b 146 796 233 994 163 908 z m 33 350 b 407 -11 33 151 179 -11 b 624 74 521 -11 583 19 b 686 13 639 44 661 25 b 801 -10 721 -6 763 -10 b 908 1 842 -10 888 -4 l 908 217 b 875 214 899 215 885 214 b 824 288 839 214 824 233 l 824 700 l 572 700 l 572 626 b 379 708 547 676 478 708 b 33 350 179 708 33 546 z m 288 350 b 433 483 288 422 353 483 b 579 350 513 483 579 422 b 433 214 579 275 513 214 b 288 350 353 214 288 275 z "},"ä":{"ha":926,"x_min":0,"x_max":0,"o":"m 622 750 b 738 860 686 750 738 800 b 622 969 738 921 686 969 b 507 860 558 969 507 919 b 622 750 507 800 558 750 z m 331 750 b 446 860 394 750 446 800 b 331 969 446 921 394 969 b 215 860 267 969 215 919 b 331 750 215 800 267 750 z m 33 350 b 407 -11 33 151 179 -11 b 624 74 521 -11 583 19 b 686 13 639 44 661 25 b 801 -10 721 -6 763 -10 b 908 1 842 -10 888 -4 l 908 217 b 875 214 899 215 885 214 b 824 288 839 214 824 233 l 824 700 l 572 700 l 572 626 b 379 708 547 676 478 708 b 33 350 179 708 33 546 z m 288 350 b 433 483 288 422 353 483 b 579 350 513 483 579 422 b 433 214 579 275 513 214 b 288 350 353 214 288 275 z "},"ā":{"ha":926,"x_min":0,"x_max":0,"o":"m 265 774 l 721 774 l 721 925 l 265 925 z m 33 350 b 407 -11 33 151 179 -11 b 624 74 521 -11 583 19 b 686 13 639 44 661 25 b 801 -10 721 -6 763 -10 b 908 1 842 -10 888 -4 l 908 217 b 875 214 899 215 885 214 b 824 288 839 214 824 233 l 824 700 l 572 700 l 572 626 b 379 708 547 676 478 708 b 33 350 179 708 33 546 z m 288 350 b 433 483 288 422 353 483 b 579 350 513 483 579 422 b 433 214 579 275 513 214 b 288 350 353 214 288 275 z "},"ă":{"ha":926,"x_min":0,"x_max":0,"o":"m 479 767 b 738 971 639 767 722 872 l 565 971 b 479 922 554 943 526 922 b 393 971 432 922 404 943 l 221 971 b 479 767 236 872 319 767 z m 33 350 b 407 -11 33 151 179 -11 b 624 74 521 -11 583 19 b 686 13 639 44 661 25 b 801 -10 721 -6 763 -10 b 908 1 842 -10 888 -4 l 908 217 b 875 214 899 215 885 214 b 824 288 839 214 824 233 l 824 700 l 572 700 l 572 626 b 379 708 547 676 478 708 b 33 350 179 708 33 546 z m 288 350 b 433 483 288 422 353 483 b 579 350 513 483 579 422 b 433 214 579 275 513 214 b 288 350 353 214 288 275 z "},"å":{"ha":926,"x_min":0,"x_max":0,"o":"m 475 754 b 658 926 576 754 658 832 b 475 1099 658 1021 576 1099 b 289 926 372 1099 289 1021 b 475 754 289 832 372 754 z m 475 879 b 426 926 449 879 426 900 b 475 974 426 953 449 974 b 522 926 501 974 522 953 b 475 879 522 900 501 879 z m 33 350 b 407 -11 33 151 179 -11 b 624 74 521 -11 583 19 b 686 13 639 44 661 25 b 801 -10 721 -6 763 -10 b 908 1 842 -10 888 -4 l 908 217 b 875 214 899 215 885 214 b 824 288 839 214 824 233 l 824 700 l 572 700 l 572 626 b 379 708 547 676 478 708 b 33 350 179 708 33 546 z m 288 350 b 433 483 288 422 353 483 b 579 350 513 483 579 422 b 433 214 579 275 513 214 b 288 350 353 214 288 275 z "},"ǻ":{"ha":926,"x_min":0,"x_max":0,"o":"m 382 1140 l 571 1140 l 714 1342 l 450 1342 z m 475 754 b 658 926 576 754 658 832 b 475 1099 658 1021 576 1099 b 289 926 372 1099 289 1021 b 475 754 289 832 372 754 z m 475 879 b 426 926 449 879 426 900 b 475 974 426 953 449 974 b 522 926 501 974 522 953 b 475 879 522 900 501 879 z m 33 350 b 407 -11 33 151 179 -11 b 624 74 521 -11 583 19 b 686 13 639 44 661 25 b 801 -10 721 -6 763 -10 b 908 1 842 -10 888 -4 l 908 217 b 875 214 899 215 885 214 b 824 288 839 214 824 233 l 824 700 l 572 700 l 572 626 b 379 708 547 676 478 708 b 33 350 179 708 33 546 z m 288 350 b 433 483 288 422 353 483 b 579 350 513 483 579 422 b 433 214 579 275 513 214 b 288 350 353 214 288 275 z "},"ą":{"ha":926,"x_min":0,"x_max":0,"o":"m 33 350 b 407 -8 33 153 179 -8 b 624 76 521 -8 583 22 b 672 22 636 53 656 33 b 711 4 681 17 697 8 b 601 -151 644 -25 601 -85 b 797 -317 601 -254 699 -317 b 876 -297 824 -317 851 -310 l 908 -146 b 828 -160 882 -154 857 -160 b 758 -107 793 -160 758 -146 b 908 4 758 -69 815 -18 l 908 219 b 875 217 899 218 885 217 b 824 290 839 217 824 236 l 824 700 l 572 700 l 572 626 b 379 708 547 676 478 708 b 33 350 179 708 33 546 z m 288 350 b 433 483 288 422 353 483 b 579 350 513 483 579 422 b 433 217 579 276 513 217 b 288 350 353 217 288 276 z "},"æ":{"ha":1447,"x_min":0,"x_max":0,"o":"m 33 350 b 401 -21 33 146 196 -21 b 611 63 499 -21 568 10 l 611 0 l 828 0 l 828 49 b 1047 -21 868 7 939 -21 b 1357 108 1157 -21 1261 13 l 1211 247 b 1061 193 1168 208 1119 193 b 913 279 974 193 917 226 l 1417 279 b 1421 357 1421 317 1421 357 b 1063 721 1421 558 1279 721 b 828 633 939 721 864 683 l 828 700 l 611 700 l 611 638 b 401 721 568 690 499 721 b 33 350 196 721 33 554 z m 286 350 b 431 486 286 424 351 486 b 575 350 508 486 575 424 b 431 214 575 275 508 214 b 286 350 351 214 286 275 z m 914 435 b 1043 518 918 481 975 518 b 1165 435 1110 518 1165 479 z "},"ǽ":{"ha":1447,"x_min":0,"x_max":0,"o":"m 613 767 l 801 767 l 944 968 l 681 968 z m 33 350 b 401 -21 33 146 196 -21 b 611 63 499 -21 568 10 l 611 0 l 828 0 l 828 49 b 1047 -21 868 7 939 -21 b 1357 108 1157 -21 1261 13 l 1211 247 b 1061 193 1168 208 1119 193 b 913 279 974 193 917 226 l 1417 279 b 1421 357 1421 317 1421 357 b 1063 721 1421 558 1279 721 b 828 633 939 721 864 683 l 828 700 l 611 700 l 611 638 b 401 721 568 690 499 721 b 33 350 196 721 33 554 z m 286 350 b 431 486 286 424 351 486 b 575 350 508 486 575 424 b 431 214 575 275 508 214 b 286 350 351 214 286 275 z m 914 435 b 1043 518 918 481 975 518 b 1165 435 1110 518 1165 479 z "},"ć":{"ha":751,"x_min":0,"x_max":0,"o":"m 325 767 l 514 767 l 657 968 l 393 968 z m 33 353 b 428 -17 33 139 210 -17 b 732 125 531 -17 632 15 l 568 282 b 428 219 531 243 496 219 b 288 353 351 219 288 275 b 428 486 288 431 351 486 b 568 424 496 486 531 463 l 732 581 b 428 722 632 690 531 722 b 33 353 210 722 33 565 z "},"ĉ":{"ha":751,"x_min":0,"x_max":0,"o":"m 140 767 l 356 767 l 421 831 l 488 767 l 703 767 l 489 935 l 354 935 z m 33 353 b 428 -17 33 139 210 -17 b 732 125 531 -17 632 15 l 568 282 b 428 219 531 243 496 219 b 288 353 351 219 288 275 b 428 486 288 431 351 486 b 568 424 496 486 531 463 l 732 581 b 428 722 632 690 531 722 b 33 353 210 722 33 565 z "},"č":{"ha":751,"x_min":0,"x_max":0,"o":"m 347 800 l 482 800 l 696 968 l 481 968 l 414 904 l 349 968 l 133 968 z m 33 353 b 428 -17 33 139 210 -17 b 732 125 531 -17 632 15 l 568 282 b 428 219 531 243 496 219 b 288 353 351 219 288 275 b 428 486 288 431 351 486 b 568 424 496 486 531 463 l 732 581 b 428 722 632 690 531 722 b 33 353 210 722 33 565 z "},"ċ":{"ha":751,"x_min":0,"x_max":0,"o":"m 425 750 b 543 863 490 750 543 801 b 425 975 543 924 490 975 b 307 863 360 975 307 924 b 425 750 307 801 360 750 z m 33 353 b 428 -17 33 139 210 -17 b 732 125 531 -17 632 15 l 568 282 b 428 219 531 243 496 219 b 288 353 351 219 288 275 b 428 486 288 431 351 486 b 568 424 496 486 531 463 l 732 581 b 428 722 632 690 531 722 b 33 353 210 722 33 565 z "},"ç":{"ha":751,"x_min":0,"x_max":0,"o":"m 33 353 b 351 -10 33 164 169 21 l 311 -106 b 385 -153 358 -106 385 -115 b 338 -192 385 -176 364 -192 b 276 -175 311 -192 297 -187 l 229 -275 b 372 -317 260 -297 317 -317 b 551 -169 481 -317 551 -264 b 460 -64 551 -104 510 -64 l 481 -12 l 482 -12 b 732 125 567 -3 650 35 l 568 282 b 428 219 531 243 496 219 b 288 353 351 219 288 275 b 428 486 288 431 351 486 b 568 424 496 486 531 463 l 732 581 b 428 722 632 690 531 722 b 33 353 210 722 33 565 z "},"ď":{"ha":1167,"x_min":0,"x_max":0,"o":"m 844 767 l 1033 767 l 1176 968 l 913 968 z m 33 350 b 407 -11 33 151 179 -11 b 624 74 521 -11 583 19 b 686 13 639 44 661 25 b 801 -10 721 -6 763 -10 b 908 1 842 -10 888 -4 l 908 217 b 875 214 899 215 885 214 b 824 288 839 214 824 233 l 824 968 l 572 968 l 572 626 b 379 708 547 676 478 708 b 33 350 179 708 33 546 z m 288 350 b 433 483 288 422 353 483 b 579 350 513 483 579 422 b 433 214 579 275 513 214 b 288 350 353 214 288 275 z "},"đ":{"ha":926,"x_min":0,"x_max":0,"o":"m 33 350 b 407 -11 33 151 179 -11 b 624 74 521 -11 583 19 b 686 13 639 44 661 25 b 801 -10 721 -6 763 -10 b 908 1 842 -10 888 -4 l 908 217 b 875 214 899 215 885 214 b 824 288 839 214 824 233 l 824 744 l 883 744 l 883 900 l 824 900 l 824 968 l 572 968 l 572 900 l 415 900 l 415 744 l 572 744 l 572 626 b 379 708 547 676 478 708 b 33 350 179 708 33 546 z m 288 350 b 433 483 288 422 353 483 b 579 350 513 483 579 422 b 433 214 579 275 513 214 b 288 350 353 214 288 275 z "},"è":{"ha":832,"x_min":0,"x_max":0,"o":"m 346 767 l 535 767 l 467 968 l 203 968 z m 33 347 b 432 -15 33 128 194 -15 b 742 114 542 -15 646 18 l 596 253 b 446 199 553 214 504 199 b 290 281 354 199 294 231 l 801 281 b 806 358 806 318 806 358 b 428 717 806 557 654 717 b 33 354 201 717 33 575 z m 292 436 b 428 519 296 482 356 519 b 550 436 494 519 550 481 z "},"é":{"ha":832,"x_min":0,"x_max":0,"o":"m 303 767 l 492 767 l 635 968 l 371 968 z m 33 347 b 432 -15 33 128 194 -15 b 742 114 542 -15 646 18 l 596 253 b 446 199 553 214 504 199 b 290 281 354 199 294 231 l 801 281 b 806 358 806 318 806 358 b 428 717 806 557 654 717 b 33 354 201 717 33 575 z m 292 436 b 428 519 296 482 356 519 b 550 436 494 519 550 481 z "},"ê":{"ha":832,"x_min":0,"x_max":0,"o":"m 147 767 l 363 767 l 428 831 l 494 767 l 710 767 l 496 935 l 361 935 z m 33 347 b 432 -15 33 128 194 -15 b 742 114 542 -15 646 18 l 596 253 b 446 199 553 214 504 199 b 290 281 354 199 294 231 l 801 281 b 806 358 806 318 806 358 b 428 717 806 557 654 717 b 33 354 201 717 33 575 z m 292 436 b 428 519 296 482 356 519 b 550 436 494 519 550 481 z "},"ě":{"ha":832,"x_min":0,"x_max":0,"o":"m 358 800 l 493 800 l 707 968 l 492 968 l 425 904 l 360 968 l 144 968 z m 33 347 b 432 -15 33 128 194 -15 b 742 114 542 -15 646 18 l 596 253 b 446 199 553 214 504 199 b 290 281 354 199 294 231 l 801 281 b 806 358 806 318 806 358 b 428 717 806 557 654 717 b 33 354 201 717 33 575 z m 292 436 b 428 519 296 482 356 519 b 550 436 494 519 550 481 z "},"ë":{"ha":832,"x_min":0,"x_max":0,"o":"m 572 750 b 688 860 636 750 688 800 b 572 969 688 921 636 969 b 457 860 508 969 457 919 b 572 750 457 800 508 750 z m 281 750 b 396 860 344 750 396 800 b 281 969 396 921 344 969 b 165 860 217 969 165 919 b 281 750 165 800 217 750 z m 33 347 b 432 -15 33 128 194 -15 b 742 114 542 -15 646 18 l 596 253 b 446 199 553 214 504 199 b 290 281 354 199 294 231 l 801 281 b 806 358 806 318 806 358 b 428 717 806 557 654 717 b 33 354 201 717 33 575 z m 292 436 b 428 519 296 482 356 519 b 550 436 494 519 550 481 z "},"ē":{"ha":832,"x_min":0,"x_max":0,"o":"m 200 774 l 656 774 l 656 925 l 200 925 z m 33 347 b 432 -15 33 128 194 -15 b 742 114 542 -15 646 18 l 596 253 b 446 199 553 214 504 199 b 290 281 354 199 294 231 l 801 281 b 806 358 806 318 806 358 b 428 717 806 557 654 717 b 33 354 201 717 33 575 z m 292 436 b 428 519 296 482 356 519 b 550 436 494 519 550 481 z "},"ĕ":{"ha":832,"x_min":0,"x_max":0,"o":"m 425 767 b 683 971 585 767 668 872 l 511 971 b 425 922 500 943 472 922 b 339 971 378 922 350 943 l 167 971 b 425 767 182 872 265 767 z m 33 347 b 432 -15 33 128 194 -15 b 742 114 542 -15 646 18 l 596 253 b 446 199 553 214 504 199 b 290 281 354 199 294 231 l 801 281 b 806 358 806 318 806 358 b 428 717 806 557 654 717 b 33 354 201 717 33 575 z m 292 436 b 428 519 296 482 356 519 b 550 436 494 519 550 481 z "},"ė":{"ha":832,"x_min":0,"x_max":0,"o":"m 426 750 b 544 863 492 750 544 801 b 426 975 544 924 492 975 b 308 863 361 975 308 924 b 426 750 308 801 361 750 z m 33 347 b 432 -15 33 128 194 -15 b 742 114 542 -15 646 18 l 596 253 b 446 199 553 214 504 199 b 290 281 354 199 294 231 l 801 281 b 806 358 806 318 806 358 b 428 717 806 557 654 717 b 33 354 201 717 33 575 z m 292 436 b 428 519 296 482 356 519 b 550 436 494 519 550 481 z "},"ę":{"ha":832,"x_min":0,"x_max":0,"o":"m 33 347 b 400 -15 33 138 181 -3 l 401 -15 b 319 -150 357 -46 319 -93 b 515 -315 319 -253 417 -315 b 594 -296 542 -315 569 -308 l 626 -144 b 546 -158 600 -153 575 -158 b 476 -117 511 -158 476 -146 b 672 54 476 -31 588 -1 b 742 114 694 69 725 93 l 596 253 b 446 199 553 214 504 199 b 290 281 354 199 294 231 l 801 281 b 806 358 806 318 806 358 b 428 717 806 557 654 717 b 33 354 201 717 33 575 z m 292 436 b 428 519 296 482 356 519 b 550 436 494 519 550 481 z "},"ĝ":{"ha":882,"x_min":0,"x_max":0,"o":"m 185 767 l 400 767 l 465 831 l 532 767 l 747 767 l 533 935 l 399 935 z m 203 -36 l 88 -211 b 436 -306 183 -279 297 -306 b 699 -221 538 -306 633 -274 b 825 117 800 -142 825 -24 l 825 700 l 574 700 l 574 626 b 381 708 549 676 479 708 b 35 350 181 708 35 546 b 381 -3 35 157 181 -3 b 585 72 485 -3 558 28 l 585 69 b 522 -64 585 22 578 -32 b 393 -93 490 -83 444 -93 b 203 -36 324 -93 263 -71 z m 288 350 b 433 483 288 422 353 483 b 579 350 513 483 579 422 b 433 218 579 276 513 218 b 288 350 353 218 288 276 z "},"ğ":{"ha":882,"x_min":0,"x_max":0,"o":"m 463 767 b 721 971 622 767 706 872 l 549 971 b 463 922 538 943 510 922 b 376 971 415 922 388 943 l 204 971 b 463 767 219 872 303 767 z m 203 -36 l 88 -211 b 436 -306 183 -279 297 -306 b 699 -221 538 -306 633 -274 b 825 117 800 -142 825 -24 l 825 700 l 574 700 l 574 626 b 381 708 549 676 479 708 b 35 350 181 708 35 546 b 381 -3 35 157 181 -3 b 585 72 485 -3 558 28 l 585 69 b 522 -64 585 22 578 -32 b 393 -93 490 -83 444 -93 b 203 -36 324 -93 263 -71 z m 288 350 b 433 483 288 422 353 483 b 579 350 513 483 579 422 b 433 218 579 276 513 218 b 288 350 353 218 288 276 z "},"ġ":{"ha":882,"x_min":0,"x_max":0,"o":"m 474 750 b 592 863 539 750 592 801 b 474 975 592 924 539 975 b 356 863 408 975 356 924 b 474 750 356 801 408 750 z m 203 -36 l 88 -211 b 436 -306 183 -279 297 -306 b 699 -221 538 -306 633 -274 b 825 117 800 -142 825 -24 l 825 700 l 574 700 l 574 626 b 381 708 549 676 479 708 b 35 350 181 708 35 546 b 381 -3 35 157 181 -3 b 585 72 485 -3 558 28 l 585 69 b 522 -64 585 22 578 -32 b 393 -93 490 -83 444 -93 b 203 -36 324 -93 263 -71 z m 288 350 b 433 483 288 422 353 483 b 579 350 513 483 579 422 b 433 218 579 276 513 218 b 288 350 353 218 288 276 z "},"ģ":{"ha":882,"x_min":0,"x_max":0,"o":"m 365 767 l 554 767 l 697 968 l 433 968 z m 203 -36 l 88 -211 b 436 -306 183 -279 297 -306 b 699 -221 538 -306 633 -274 b 825 117 800 -142 825 -24 l 825 700 l 574 700 l 574 626 b 381 708 549 676 479 708 b 35 350 181 708 35 546 b 381 -3 35 157 181 -3 b 585 72 485 -3 558 28 l 585 69 b 522 -64 585 22 578 -32 b 393 -93 490 -83 444 -93 b 203 -36 324 -93 263 -71 z m 288 350 b 433 483 288 422 353 483 b 579 350 513 483 579 422 b 433 218 579 276 513 218 b 288 350 353 218 288 276 z "},"ĥ":{"ha":858,"x_min":0,"x_max":0,"o":"m -89 1035 l 126 1035 l 192 1099 l 258 1035 l 474 1035 l 260 1203 l 125 1203 z m 64 0 l 321 0 l 321 385 b 422 497 321 450 364 497 b 514 388 482 497 514 454 l 514 210 b 724 -10 514 61 585 -10 b 835 1 797 -10 835 1 l 835 219 b 815 218 835 219 824 218 b 771 292 781 218 771 242 l 771 414 b 508 717 771 606 681 717 b 321 614 426 717 365 692 l 321 968 l 64 968 z "},"ħ":{"ha":871,"x_min":0,"x_max":0,"o":"m 76 0 l 333 0 l 333 385 b 435 497 333 450 376 497 b 526 388 494 497 526 454 l 526 210 b 736 -10 526 61 597 -10 b 847 1 810 -10 847 1 l 847 219 b 828 218 847 219 836 218 b 783 292 793 218 783 242 l 783 414 b 521 717 783 606 693 717 b 333 614 439 717 378 692 l 333 742 l 464 742 l 464 900 l 333 900 l 333 968 l 76 968 l 76 900 l 8 900 l 8 742 l 76 742 z "},"ì":{"ha":411,"x_min":0,"x_max":0,"o":"m 113 767 l 301 767 l 242 968 l -22 968 z m 64 210 b 274 -10 64 61 135 -10 b 385 1 347 -10 385 1 l 385 219 b 365 218 385 219 374 218 b 321 292 331 218 321 242 l 321 700 l 64 700 z "},"í":{"ha":411,"x_min":0,"x_max":0,"o":"m 68 767 l 257 767 l 392 968 l 128 968 z m 64 210 b 274 -10 64 61 135 -10 b 385 1 347 -10 385 1 l 385 219 b 365 218 385 219 374 218 b 321 292 331 218 321 242 l 321 700 l 64 700 z "},"î":{"ha":454,"x_min":0,"x_max":0,"o":"m -15 767 l 188 767 l 238 838 l 289 767 l 492 767 l 306 935 l 171 935 z m 107 210 b 317 -10 107 61 178 -10 b 428 1 390 -10 428 1 l 428 219 b 408 218 428 219 417 218 b 364 292 374 218 364 242 l 364 700 l 107 700 z "},"ĩ":{"ha":461,"x_min":0,"x_max":0,"o":"m 104 774 b 160 822 111 813 133 822 b 335 761 204 822 251 761 b 515 969 447 761 500 844 l 379 992 b 318 933 368 949 349 933 b 146 994 274 933 228 994 b -32 796 44 994 -18 908 z m 114 210 b 324 -10 114 61 185 -10 b 435 1 397 -10 435 1 l 435 219 b 415 218 435 219 424 218 b 371 292 381 218 371 242 l 371 700 l 114 700 z "},"ï":{"ha":447,"x_min":0,"x_max":0,"o":"m 357 758 b 468 864 418 758 468 807 b 357 969 468 922 418 969 b 246 864 296 969 246 921 b 357 758 246 807 296 758 z m 99 758 b 210 864 160 758 210 807 b 99 969 210 922 160 969 b -12 864 38 969 -12 921 b 99 758 -12 807 38 758 z m 100 210 b 310 -10 100 61 171 -10 b 421 1 383 -10 421 1 l 421 219 b 401 218 421 219 410 218 b 357 292 367 218 357 242 l 357 700 l 100 700 z "},"ī":{"ha":426,"x_min":0,"x_max":0,"o":"m 8 774 l 406 774 l 406 925 l 8 925 z m 79 210 b 289 -10 79 61 150 -10 b 400 1 363 -10 400 1 l 400 219 b 381 218 400 219 389 218 b 336 292 346 218 336 242 l 336 700 l 79 700 z "},"ĭ":{"ha":440,"x_min":0,"x_max":0,"o":"m 221 767 b 465 971 372 767 451 872 l 293 971 b 221 922 283 943 261 922 b 149 971 181 922 158 943 l -24 971 b 221 767 -10 872 69 767 z m 93 210 b 303 -10 93 61 164 -10 b 414 1 376 -10 414 1 l 414 219 b 394 218 414 219 403 218 b 350 292 360 218 350 242 l 350 700 l 93 700 z "},"į":{"ha":411,"x_min":0,"x_max":0,"o":"m 64 213 b 188 4 64 99 106 31 b 78 -151 121 -25 78 -85 b 274 -317 78 -254 175 -317 b 353 -297 300 -317 328 -310 l 385 -146 b 304 -160 358 -154 333 -160 b 235 -107 269 -160 235 -146 b 385 4 235 -69 292 -18 l 385 222 b 365 221 385 222 374 221 b 321 294 331 221 321 244 l 321 700 l 64 700 z m 192 732 b 333 872 269 732 333 794 b 192 1013 333 950 269 1013 b 50 872 114 1013 50 950 b 192 732 50 794 114 732 z "},"ĳ":{"ha":689,"x_min":0,"x_max":0,"o":"m 510 740 b 644 874 583 740 644 800 b 510 1007 644 947 583 1007 b 375 874 436 1007 375 947 b 510 740 375 800 436 740 z m 185 740 b 319 874 258 740 319 800 b 185 1007 319 947 258 1007 b 50 874 111 1007 50 947 b 185 740 50 800 111 740 z m 65 4 b 306 -17 114 -8 213 -17 b 581 85 399 -17 515 -1 b 631 258 611 125 631 182 l 631 700 l 389 700 l 389 306 b 263 197 389 226 350 197 b 65 211 203 197 135 200 z m 64 265 l 306 265 l 306 700 l 64 700 z "},"ı":{"ha":411,"x_min":0,"x_max":0,"o":"m 64 210 b 274 -10 64 61 135 -10 b 385 1 347 -10 385 1 l 385 219 b 365 218 385 219 374 218 b 321 292 331 218 321 242 l 321 700 l 64 700 z "},"ĵ":{"ha":421,"x_min":0,"x_max":0,"o":"m -18 767 l 185 767 l 235 838 l 286 767 l 489 767 l 303 935 l 168 935 z m 106 -4 b 29 -83 106 -62 82 -83 b -14 -81 18 -83 1 -82 l -14 -300 b 101 -307 11 -304 58 -307 b 363 -42 213 -307 363 -274 l 363 700 l 106 700 z "},"ķ":{"ha":808,"x_min":0,"x_max":0,"o":"m 64 0 l 321 0 l 321 174 l 368 225 l 546 0 l 828 0 l 532 382 l 807 700 l 525 700 l 321 463 l 321 968 l 64 968 z m 304 -67 l 236 -268 l 425 -268 l 568 -67 z "},"ĺ":{"ha":454,"x_min":0,"x_max":0,"o":"m 61 1003 l 250 1003 l 393 1204 l 129 1204 z m 58 251 b 321 -17 58 19 210 -17 b 442 -6 367 -17 418 -11 l 442 211 b 392 207 426 208 407 207 b 315 288 339 207 315 229 l 315 968 l 58 968 z "},"ľ":{"ha":664,"x_min":0,"x_max":0,"o":"m 58 251 b 321 -17 58 19 210 -17 b 442 -6 367 -17 418 -11 l 442 211 b 392 207 426 208 407 207 b 315 288 339 207 315 229 l 315 968 l 58 968 z m 339 767 l 528 767 l 671 968 l 407 968 z "},"ļ":{"ha":454,"x_min":0,"x_max":0,"o":"m 58 251 b 321 -17 58 19 210 -17 b 442 -6 367 -17 418 -11 l 442 211 b 392 207 426 208 407 207 b 315 288 339 207 315 229 l 315 968 l 58 968 z m 125 -67 l 57 -268 l 246 -268 l 389 -67 z "},"ŀ":{"ha":631,"x_min":0,"x_max":0,"o":"m 58 251 b 321 -17 58 19 210 -17 b 442 -6 367 -17 418 -11 l 442 211 b 392 207 426 208 407 207 b 315 288 339 207 315 229 l 315 968 l 58 968 z m 475 388 b 593 500 540 388 593 439 b 475 613 593 561 540 613 b 357 500 410 613 357 561 b 475 388 357 439 410 388 z "},"ł":{"ha":501,"x_min":0,"x_max":0,"o":"m 100 251 b 363 -17 100 19 251 -17 b 483 -6 408 -17 460 -11 l 483 211 b 433 207 468 208 449 207 b 357 288 381 207 357 229 l 357 440 l 481 508 l 481 746 l 357 681 l 357 968 l 100 968 l 100 563 l 6 513 l 6 275 l 100 325 z "},"ń":{"ha":869,"x_min":0,"x_max":0,"o":"m 299 767 l 488 767 l 631 968 l 367 968 z m 64 0 l 321 0 l 321 379 b 428 492 321 446 365 492 b 525 383 490 492 525 449 l 525 210 b 735 -10 525 61 596 -10 b 846 1 808 -10 846 1 l 846 219 b 826 218 846 219 835 218 b 782 292 792 218 782 242 l 782 414 b 514 717 782 606 689 717 b 321 614 431 717 367 692 l 321 700 l 64 700 z "},"ň":{"ha":869,"x_min":0,"x_max":0,"o":"m 353 800 l 488 800 l 701 968 l 486 968 l 419 904 l 354 968 l 139 968 z m 64 0 l 321 0 l 321 379 b 428 492 321 446 365 492 b 525 383 490 492 525 449 l 525 210 b 735 -10 525 61 596 -10 b 846 1 808 -10 846 1 l 846 219 b 826 218 846 219 835 218 b 782 292 792 218 782 242 l 782 414 b 514 717 782 606 689 717 b 321 614 431 717 367 692 l 321 700 l 64 700 z "},"ñ":{"ha":869,"x_min":0,"x_max":0,"o":"m 110 796 l 246 774 b 301 822 253 813 275 822 b 532 761 375 822 429 761 b 740 969 661 761 722 844 l 604 992 b 543 933 593 949 574 933 b 315 994 469 933 417 994 b 110 796 197 994 126 908 z m 64 0 l 321 0 l 321 379 b 428 492 321 446 365 492 b 525 383 490 492 525 449 l 525 210 b 735 -10 525 61 596 -10 b 846 1 808 -10 846 1 l 846 219 b 826 218 846 219 835 218 b 782 292 792 218 782 242 l 782 414 b 514 717 782 606 689 717 b 321 614 431 717 367 692 l 321 700 l 64 700 z "},"ņ":{"ha":869,"x_min":0,"x_max":0,"o":"m 311 -67 l 243 -268 l 432 -268 l 575 -67 z m 64 0 l 321 0 l 321 379 b 428 492 321 446 365 492 b 525 383 490 492 525 449 l 525 210 b 735 -10 525 61 596 -10 b 846 1 808 -10 846 1 l 846 219 b 826 218 846 219 835 218 b 782 292 792 218 782 242 l 782 414 b 514 717 782 606 689 717 b 321 614 431 717 367 692 l 321 700 l 64 700 z "},"ò":{"ha":861,"x_min":0,"x_max":0,"o":"m 356 767 l 544 767 l 476 968 l 213 968 z m 33 350 b 431 -21 33 146 210 -21 b 828 350 650 -21 828 146 b 431 721 828 553 650 721 b 33 350 210 721 33 553 z m 286 350 b 431 486 286 424 351 486 b 575 350 508 486 575 424 b 431 214 575 275 508 214 b 286 350 351 214 286 275 z "},"ó":{"ha":861,"x_min":0,"x_max":0,"o":"m 326 767 l 515 767 l 658 968 l 394 968 z m 33 350 b 431 -21 33 146 210 -21 b 828 350 650 -21 828 146 b 431 721 828 553 650 721 b 33 350 210 721 33 553 z m 286 350 b 431 486 286 424 351 486 b 575 350 508 486 575 424 b 431 214 575 275 508 214 b 286 350 351 214 286 275 z "},"ô":{"ha":861,"x_min":0,"x_max":0,"o":"m 150 767 l 365 767 l 431 831 l 497 767 l 713 767 l 499 935 l 364 935 z m 33 350 b 431 -21 33 146 210 -21 b 828 350 650 -21 828 146 b 431 721 828 553 650 721 b 33 350 210 721 33 553 z m 286 350 b 431 486 286 424 351 486 b 575 350 508 486 575 424 b 431 214 575 275 508 214 b 286 350 351 214 286 275 z "},"õ":{"ha":861,"x_min":0,"x_max":0,"o":"m 113 796 l 249 774 b 304 822 256 813 278 822 b 535 761 378 822 432 761 b 743 969 664 761 725 844 l 607 992 b 546 933 596 949 576 933 b 318 994 472 933 419 994 b 113 796 200 994 129 908 z m 33 350 b 431 -21 33 146 210 -21 b 828 350 650 -21 828 146 b 431 721 828 553 650 721 b 33 350 210 721 33 553 z m 286 350 b 431 486 286 424 351 486 b 575 350 508 486 575 424 b 431 214 575 275 508 214 b 286 350 351 214 286 275 z "},"ö":{"ha":861,"x_min":0,"x_max":0,"o":"m 575 750 b 690 860 639 750 690 800 b 575 969 690 921 639 969 b 460 860 511 969 460 919 b 575 750 460 800 511 750 z m 283 750 b 399 860 347 750 399 800 b 283 969 399 921 347 969 b 168 860 219 969 168 919 b 283 750 168 800 219 750 z m 33 350 b 431 -21 33 146 210 -21 b 828 350 650 -21 828 146 b 431 721 828 553 650 721 b 33 350 210 721 33 553 z m 286 350 b 431 486 286 424 351 486 b 575 350 508 486 575 424 b 431 214 575 275 508 214 b 286 350 351 214 286 275 z "},"ō":{"ha":861,"x_min":0,"x_max":0,"o":"m 203 774 l 658 774 l 658 925 l 203 925 z m 33 350 b 431 -21 33 146 210 -21 b 828 350 650 -21 828 146 b 431 721 828 553 650 721 b 33 350 210 721 33 553 z m 286 350 b 431 486 286 424 351 486 b 575 350 508 486 575 424 b 431 214 575 275 508 214 b 286 350 351 214 286 275 z "},"ŏ":{"ha":861,"x_min":0,"x_max":0,"o":"m 431 767 b 689 971 590 767 674 872 l 517 971 b 431 922 506 943 478 922 b 344 971 383 922 356 943 l 172 971 b 431 767 188 872 271 767 z m 33 350 b 431 -21 33 146 210 -21 b 828 350 650 -21 828 146 b 431 721 828 553 650 721 b 33 350 210 721 33 553 z m 286 350 b 431 486 286 424 351 486 b 575 350 508 486 575 424 b 431 214 575 275 508 214 b 286 350 351 214 286 275 z "},"ő":{"ha":861,"x_min":0,"x_max":0,"o":"m 457 767 l 633 767 l 808 968 l 560 968 z m 186 767 l 363 767 l 538 968 l 289 968 z m 33 350 b 431 -21 33 146 210 -21 b 828 350 650 -21 828 146 b 431 721 828 553 650 721 b 33 350 210 721 33 553 z m 286 350 b 431 486 286 424 351 486 b 575 350 508 486 575 424 b 431 214 575 275 508 214 b 286 350 351 214 286 275 z "},"ø":{"ha":861,"x_min":0,"x_max":0,"o":"m 74 19 l 210 -83 l 278 7 b 431 -21 324 -11 376 -21 b 828 350 650 -21 828 146 b 724 599 828 444 788 532 l 779 671 l 643 774 l 582 693 b 431 721 535 711 483 721 b 33 350 210 721 33 553 b 135 101 33 254 72 168 z m 294 303 b 286 350 289 318 286 333 b 431 486 286 424 351 486 l 432 486 z m 426 214 l 565 397 b 575 350 571 382 575 367 b 431 214 575 275 508 214 z "},"ǿ":{"ha":839,"x_min":0,"x_max":0,"o":"m 343 767 l 532 767 l 675 968 l 411 968 z m 74 19 l 210 -83 l 278 7 b 431 -21 324 -11 376 -21 b 828 350 650 -21 828 146 b 724 599 828 444 788 532 l 779 671 l 643 774 l 582 693 b 431 721 535 711 483 721 b 33 350 210 721 33 553 b 135 101 33 254 72 168 z m 294 303 b 286 350 289 318 286 333 b 431 486 286 424 351 486 l 432 486 z m 426 214 l 565 397 b 575 350 571 382 575 367 b 431 214 575 275 508 214 z "},"œ":{"ha":1339,"x_min":0,"x_max":0,"o":"m 33 350 b 431 -21 33 146 210 -21 b 679 75 535 -21 618 15 b 939 -21 739 11 831 -21 b 1249 108 1049 -21 1153 13 l 1103 247 b 953 193 1060 208 1011 193 b 804 279 865 193 808 226 l 1308 279 b 1313 357 1313 317 1313 357 b 954 721 1313 558 1171 721 b 681 618 828 721 738 678 b 431 721 621 681 535 721 b 33 350 210 721 33 553 z m 806 435 b 935 518 810 481 867 518 b 1057 435 1001 518 1057 479 z m 286 350 b 431 486 286 424 351 486 b 575 350 508 486 575 424 b 431 214 575 275 508 214 b 286 350 351 214 286 275 z "},"ŕ":{"ha":599,"x_min":0,"x_max":0,"o":"m 169 767 l 358 767 l 501 968 l 238 968 z m 64 0 l 321 0 l 321 311 b 508 486 321 422 386 486 b 578 479 533 486 557 483 l 578 713 b 518 717 565 713 539 717 b 321 614 433 717 367 692 l 321 700 l 64 700 z "},"ŗ":{"ha":599,"x_min":0,"x_max":0,"o":"m 64 0 l 321 0 l 321 311 b 508 486 321 422 386 486 b 578 479 533 486 557 483 l 578 713 b 518 717 565 713 539 717 b 321 614 433 717 367 692 l 321 700 l 64 700 z m 64 -67 l -4 -268 l 185 -268 l 328 -67 z "},"ř":{"ha":599,"x_min":0,"x_max":0,"o":"m 249 800 l 383 800 l 597 968 l 382 968 l 315 904 l 250 968 l 35 968 z m 64 0 l 321 0 l 321 311 b 508 486 321 422 386 486 b 578 479 533 486 557 483 l 578 713 b 518 717 565 713 539 717 b 321 614 433 717 367 692 l 321 700 l 64 700 z "},"ś":{"ha":697,"x_min":0,"x_max":0,"o":"m 229 767 l 418 767 l 561 968 l 297 968 z m 10 85 b 343 -21 74 36 168 -21 b 669 231 569 -21 669 81 b 515 419 669 308 638 379 b 293 489 351 474 293 449 b 356 518 293 501 308 518 b 522 474 439 518 493 490 l 622 646 b 364 721 571 678 492 721 b 64 478 215 721 64 646 b 211 290 64 383 121 322 b 433 228 319 253 433 261 b 356 194 433 197 400 194 b 146 257 281 194 196 215 z "},"ŝ":{"ha":697,"x_min":0,"x_max":0,"o":"m 79 767 l 294 767 l 360 831 l 426 767 l 642 767 l 428 935 l 293 935 z m 10 85 b 343 -21 74 36 168 -21 b 669 231 569 -21 669 81 b 515 419 669 308 638 379 b 293 489 351 474 293 449 b 356 518 293 501 308 518 b 522 474 439 518 493 490 l 622 646 b 364 721 571 678 492 721 b 64 478 215 721 64 646 b 211 290 64 383 121 322 b 433 228 319 253 433 261 b 356 194 433 197 400 194 b 146 257 281 194 196 215 z "},"š":{"ha":697,"x_min":0,"x_max":0,"o":"m 303 800 l 438 800 l 651 968 l 436 968 l 369 904 l 304 968 l 89 968 z m 10 85 b 343 -21 74 36 168 -21 b 669 231 569 -21 669 81 b 515 419 669 308 638 379 b 293 489 351 474 293 449 b 356 518 293 501 308 518 b 522 474 439 518 493 490 l 622 646 b 364 721 571 678 492 721 b 64 478 215 721 64 646 b 211 290 64 383 121 322 b 433 228 319 253 433 261 b 356 194 433 197 400 194 b 146 257 281 194 196 215 z "},"ș":{"ha":697,"x_min":0,"x_max":0,"o":"m 10 85 b 343 -21 74 36 168 -21 b 669 231 569 -21 669 81 b 515 419 669 308 638 379 b 293 489 351 474 293 449 b 356 518 293 501 308 518 b 522 474 439 518 493 490 l 622 646 b 364 721 571 678 492 721 b 64 478 215 721 64 646 b 211 290 64 383 121 322 b 433 228 319 253 433 261 b 356 194 433 197 400 194 b 146 257 281 194 196 215 z m 203 -67 l 135 -268 l 324 -268 l 467 -67 z "},"ş":{"ha":697,"x_min":0,"x_max":0,"o":"m 10 85 b 264 -17 63 43 138 -3 l 226 -106 b 300 -153 274 -106 300 -115 b 253 -192 300 -176 279 -192 b 192 -175 226 -192 213 -187 l 144 -275 b 288 -317 175 -297 232 -317 b 467 -169 396 -317 467 -264 b 375 -64 467 -104 425 -64 l 394 -19 b 669 231 585 -4 669 92 b 515 419 669 308 638 379 b 293 489 351 474 293 449 b 356 518 293 501 308 518 b 522 474 439 518 493 490 l 622 646 b 364 721 571 678 492 721 b 64 478 215 721 64 646 b 211 290 64 383 121 322 b 433 228 319 253 433 261 b 356 194 433 197 400 194 b 146 257 281 194 196 215 z "},"ß":{"ha":860,"x_min":0,"x_max":0,"o":"m 64 0 l 321 0 l 321 696 b 376 757 321 728 344 757 b 433 703 410 757 433 731 b 363 635 433 665 410 639 l 363 479 b 433 486 385 483 411 486 b 582 351 515 486 582 425 b 433 214 582 275 515 214 b 363 219 410 214 385 214 l 363 -10 b 461 -17 394 -15 431 -17 b 826 351 674 -17 826 144 b 642 649 826 483 753 599 b 664 729 657 672 664 697 b 364 989 664 874 533 989 b 64 719 193 989 64 871 z "},"ť":{"ha":701,"x_min":0,"x_max":0,"o":"m 103 250 b 364 -17 103 18 253 -17 b 483 -6 410 -17 460 -11 l 483 213 b 436 207 469 210 450 207 b 360 286 383 207 360 229 l 360 476 l 504 476 l 504 700 l 360 700 l 360 968 l 103 968 l 103 700 l 7 700 l 7 476 l 103 476 z m 376 767 l 565 767 l 708 968 l 444 968 z "},"ţ":{"ha":517,"x_min":0,"x_max":0,"o":"m 103 250 b 364 -17 103 18 253 -17 b 483 -6 410 -17 460 -11 l 483 213 b 436 207 469 210 450 207 b 360 286 383 207 360 229 l 360 476 l 504 476 l 504 700 l 360 700 l 360 968 l 103 968 l 103 700 l 7 700 l 7 476 l 103 476 z m 157 -67 l 89 -268 l 278 -268 l 421 -67 z "},"ŧ":{"ha":522,"x_min":0,"x_max":0,"o":"m 103 250 b 364 -17 103 18 253 -17 b 483 -6 410 -17 460 -11 l 483 213 b 436 207 469 210 450 207 b 361 257 393 207 369 219 b 361 258 361 257 361 258 l 497 258 l 497 454 l 360 454 l 360 488 l 497 488 l 497 700 l 360 700 l 360 968 l 103 968 l 103 700 l 15 700 l 15 488 l 103 488 l 103 454 l 15 454 l 15 258 l 103 258 z "},"ù":{"ha":869,"x_min":0,"x_max":0,"o":"m 342 767 l 531 767 l 463 968 l 199 968 z m 58 286 b 349 -19 58 93 157 -19 b 569 69 467 -19 529 13 b 626 14 583 43 604 26 b 744 -10 663 -6 704 -10 b 851 1 785 -10 831 -4 l 851 217 b 818 214 842 215 828 214 b 767 288 782 214 767 233 l 767 700 l 511 700 l 511 321 b 408 206 511 253 467 206 b 315 317 349 206 315 250 l 315 700 l 58 700 z "},"ú":{"ha":869,"x_min":0,"x_max":0,"o":"m 297 767 l 486 767 l 629 968 l 365 968 z m 58 286 b 349 -19 58 93 157 -19 b 569 69 467 -19 529 13 b 626 14 583 43 604 26 b 744 -10 663 -6 704 -10 b 851 1 785 -10 831 -4 l 851 217 b 818 214 842 215 828 214 b 767 288 782 214 767 233 l 767 700 l 511 700 l 511 321 b 408 206 511 253 467 206 b 315 317 349 206 315 250 l 315 700 l 58 700 z "},"û":{"ha":869,"x_min":0,"x_max":0,"o":"m 138 767 l 353 767 l 418 831 l 485 767 l 700 767 l 486 935 l 351 935 z m 58 286 b 349 -19 58 93 157 -19 b 569 69 467 -19 529 13 b 626 14 583 43 604 26 b 744 -10 663 -6 704 -10 b 851 1 785 -10 831 -4 l 851 217 b 818 214 842 215 828 214 b 767 288 782 214 767 233 l 767 700 l 511 700 l 511 321 b 408 206 511 253 467 206 b 315 317 349 206 315 250 l 315 700 l 58 700 z "},"ũ":{"ha":869,"x_min":0,"x_max":0,"o":"m 101 796 l 238 774 b 293 822 244 813 267 822 b 524 761 367 822 421 761 b 732 969 653 761 714 844 l 596 992 b 535 933 585 949 565 933 b 307 994 461 933 408 994 b 101 796 189 994 118 908 z m 58 286 b 349 -19 58 93 157 -19 b 569 69 467 -19 529 13 b 626 14 583 43 604 26 b 744 -10 663 -6 704 -10 b 851 1 785 -10 831 -4 l 851 217 b 818 214 842 215 828 214 b 767 288 782 214 767 233 l 767 700 l 511 700 l 511 321 b 408 206 511 253 467 206 b 315 317 349 206 315 250 l 315 700 l 58 700 z "},"ü":{"ha":869,"x_min":0,"x_max":0,"o":"m 564 750 b 679 860 628 750 679 800 b 564 969 679 921 628 969 b 449 860 500 969 449 919 b 564 750 449 800 500 750 z m 272 750 b 388 860 336 750 388 800 b 272 969 388 921 336 969 b 157 860 208 969 157 919 b 272 750 157 800 208 750 z m 58 286 b 349 -19 58 93 157 -19 b 569 69 467 -19 529 13 b 626 14 583 43 604 26 b 744 -10 663 -6 704 -10 b 851 1 785 -10 831 -4 l 851 217 b 818 214 842 215 828 214 b 767 288 782 214 767 233 l 767 700 l 511 700 l 511 321 b 408 206 511 253 467 206 b 315 317 349 206 315 250 l 315 700 l 58 700 z "},"ū":{"ha":869,"x_min":0,"x_max":0,"o":"m 190 774 l 646 774 l 646 925 l 190 925 z m 58 286 b 349 -19 58 93 157 -19 b 569 69 467 -19 529 13 b 626 14 583 43 604 26 b 744 -10 663 -6 704 -10 b 851 1 785 -10 831 -4 l 851 217 b 818 214 842 215 828 214 b 767 288 782 214 767 233 l 767 700 l 511 700 l 511 321 b 408 206 511 253 467 206 b 315 317 349 206 315 250 l 315 700 l 58 700 z "},"ŭ":{"ha":869,"x_min":0,"x_max":0,"o":"m 418 767 b 676 971 578 767 661 872 l 504 971 b 418 922 493 943 465 922 b 332 971 371 922 343 943 l 160 971 b 418 767 175 872 258 767 z m 58 286 b 349 -19 58 93 157 -19 b 569 69 467 -19 529 13 b 626 14 583 43 604 26 b 744 -10 663 -6 704 -10 b 851 1 785 -10 831 -4 l 851 217 b 818 214 842 215 828 214 b 767 288 782 214 767 233 l 767 700 l 511 700 l 511 321 b 408 206 511 253 467 206 b 315 317 349 206 315 250 l 315 700 l 58 700 z "},"ů":{"ha":869,"x_min":0,"x_max":0,"o":"m 418 754 b 601 926 519 754 601 832 b 418 1099 601 1021 519 1099 b 232 926 315 1099 232 1021 b 418 754 232 832 315 754 z m 418 879 b 369 926 392 879 369 900 b 418 974 369 953 392 974 b 465 926 444 974 465 953 b 418 879 465 900 444 879 z m 58 286 b 349 -19 58 93 157 -19 b 569 69 467 -19 529 13 b 626 14 583 43 604 26 b 744 -10 663 -6 704 -10 b 851 1 785 -10 831 -4 l 851 217 b 818 214 842 215 828 214 b 767 288 782 214 767 233 l 767 700 l 511 700 l 511 321 b 408 206 511 253 467 206 b 315 317 349 206 315 250 l 315 700 l 58 700 z "},"ű":{"ha":869,"x_min":0,"x_max":0,"o":"m 440 767 l 617 767 l 792 968 l 543 968 z m 169 767 l 346 767 l 521 968 l 272 968 z m 58 286 b 349 -19 58 93 157 -19 b 569 69 467 -19 529 13 b 626 14 583 43 604 26 b 744 -10 663 -6 704 -10 b 851 1 785 -10 831 -4 l 851 217 b 818 214 842 215 828 214 b 767 288 782 214 767 233 l 767 700 l 511 700 l 511 321 b 408 206 511 253 467 206 b 315 317 349 206 315 250 l 315 700 l 58 700 z "},"ų":{"ha":869,"x_min":0,"x_max":0,"o":"m 58 289 b 349 -17 58 96 157 -17 b 569 72 458 -17 529 18 b 606 31 579 54 592 42 b 654 4 621 19 638 10 b 544 -151 588 -25 544 -85 b 740 -317 544 -254 642 -317 b 819 -297 767 -317 794 -310 l 851 -146 b 771 -160 825 -154 800 -160 b 701 -107 736 -160 701 -146 b 851 4 701 -69 758 -18 l 851 219 b 818 217 842 218 828 217 b 767 290 782 217 767 236 l 767 700 l 511 700 l 511 324 b 408 208 511 256 467 208 b 315 319 349 208 315 253 l 315 700 l 58 700 z "},"ẁ":{"ha":1042,"x_min":0,"x_max":0,"o":"m 454 767 l 643 767 l 575 968 l 311 968 z m 203 0 l 424 0 l 521 347 l 618 0 l 839 0 l 1046 700 l 814 700 l 717 364 l 622 700 l 419 700 l 325 364 l 228 700 l -4 700 z "},"ẃ":{"ha":1042,"x_min":0,"x_max":0,"o":"m 393 767 l 582 767 l 725 968 l 461 968 z m 203 0 l 424 0 l 521 347 l 618 0 l 839 0 l 1046 700 l 814 700 l 717 364 l 622 700 l 419 700 l 325 364 l 228 700 l -4 700 z "},"ŵ":{"ha":1042,"x_min":0,"x_max":0,"o":"m 240 767 l 456 767 l 521 831 l 588 767 l 803 767 l 589 935 l 454 935 z m 203 0 l 424 0 l 521 347 l 618 0 l 839 0 l 1046 700 l 814 700 l 717 364 l 622 700 l 419 700 l 325 364 l 228 700 l -4 700 z "},"ẅ":{"ha":1042,"x_min":0,"x_max":0,"o":"m 667 750 b 782 860 731 750 782 800 b 667 969 782 921 731 969 b 551 860 603 969 551 919 b 667 750 551 800 603 750 z m 375 750 b 490 860 439 750 490 800 b 375 969 490 921 439 969 b 260 860 311 969 260 919 b 375 750 260 800 311 750 z m 203 0 l 424 0 l 521 347 l 618 0 l 839 0 l 1046 700 l 814 700 l 717 364 l 622 700 l 419 700 l 325 364 l 228 700 l -4 700 z "},"ỳ":{"ha":860,"x_min":0,"x_max":0,"o":"m 365 767 l 554 767 l 486 968 l 222 968 z m 143 -86 l 143 -297 b 244 -307 169 -303 204 -307 b 457 -242 329 -307 401 -287 b 542 -107 494 -210 519 -165 l 851 700 l 593 700 l 439 264 l 265 700 l 7 700 l 313 -42 l 315 -49 b 300 -82 315 -58 313 -74 b 233 -96 285 -92 267 -96 b 143 -86 206 -96 168 -96 z "},"ý":{"ha":860,"x_min":0,"x_max":0,"o":"m 315 767 l 504 767 l 647 968 l 383 968 z m 143 -86 l 143 -297 b 244 -307 169 -303 204 -307 b 457 -242 329 -307 401 -287 b 542 -107 494 -210 519 -165 l 851 700 l 593 700 l 439 264 l 265 700 l 7 700 l 313 -42 l 315 -49 b 300 -82 315 -58 313 -74 b 233 -96 285 -92 267 -96 b 143 -86 206 -96 168 -96 z "},"ŷ":{"ha":860,"x_min":0,"x_max":0,"o":"m 158 767 l 374 767 l 439 831 l 506 767 l 721 767 l 507 935 l 372 935 z m 143 -86 l 143 -297 b 244 -307 169 -303 204 -307 b 457 -242 329 -307 401 -287 b 542 -107 494 -210 519 -165 l 851 700 l 593 700 l 439 264 l 265 700 l 7 700 l 313 -42 l 315 -49 b 300 -82 315 -58 313 -74 b 233 -96 285 -92 267 -96 b 143 -86 206 -96 168 -96 z "},"ÿ":{"ha":860,"x_min":0,"x_max":0,"o":"m 583 750 b 699 860 647 750 699 800 b 583 969 699 921 647 969 b 468 860 519 969 468 919 b 583 750 468 800 519 750 z m 292 750 b 407 860 356 750 407 800 b 292 969 407 921 356 969 b 176 860 228 969 176 919 b 292 750 176 800 228 750 z m 143 -86 l 143 -297 b 244 -307 169 -303 204 -307 b 457 -242 329 -307 401 -287 b 542 -107 494 -210 519 -165 l 851 700 l 593 700 l 439 264 l 265 700 l 7 700 l 313 -42 l 315 -49 b 300 -82 315 -58 313 -74 b 233 -96 285 -92 267 -96 b 143 -86 206 -96 168 -96 z "},"ź":{"ha":753,"x_min":0,"x_max":0,"o":"m 289 767 l 478 767 l 621 968 l 357 968 z m 17 0 l 735 0 l 735 224 l 403 224 l 724 518 l 724 700 l 50 700 l 50 476 l 369 476 l 17 164 z "},"ž":{"ha":753,"x_min":0,"x_max":0,"o":"m 339 800 l 474 800 l 688 968 l 472 968 l 406 904 l 340 968 l 125 968 z m 17 0 l 735 0 l 735 224 l 403 224 l 724 518 l 724 700 l 50 700 l 50 476 l 369 476 l 17 164 z "},"ż":{"ha":753,"x_min":0,"x_max":0,"o":"m 401 750 b 519 863 467 750 519 801 b 401 975 519 924 467 975 b 283 863 336 975 283 924 b 401 750 283 801 336 750 z m 17 0 l 735 0 l 735 224 l 403 224 l 724 518 l 724 700 l 50 700 l 50 476 l 369 476 l 17 164 z "},"ŋ":{"ha":847,"x_min":0,"x_max":0,"o":"m 64 0 l 321 0 l 321 379 b 431 492 321 446 368 492 b 532 383 496 492 532 449 l 532 11 b 442 -83 532 -53 504 -83 b 382 -81 424 -83 401 -82 l 382 -300 b 513 -307 410 -304 464 -307 b 717 -240 579 -307 660 -294 b 789 -26 760 -199 789 -132 l 789 414 b 518 717 789 606 694 717 b 321 614 433 717 367 692 l 321 700 l 64 700 z "},"ð":{"ha":760,"x_min":0,"x_max":0,"o":"m 33 310 b 365 -12 33 132 182 -12 b 726 397 576 -12 726 136 b 692 592 726 463 714 529 b 522 844 658 685 601 771 l 594 928 l 450 1054 l 368 958 b 164 1040 306 994 236 1022 l 92 843 b 226 799 139 831 185 818 l 176 739 l 322 615 l 386 688 b 481 571 422 654 456 615 b 351 615 458 592 414 615 b 33 310 171 615 33 476 z m 279 310 b 381 401 279 360 324 401 b 482 310 436 401 482 360 b 381 217 482 258 436 217 b 279 310 324 217 279 258 z "},"þ":{"ha":888,"x_min":0,"x_max":0,"o":"m 64 -268 l 315 -268 l 315 74 b 508 -8 340 24 410 -8 b 854 350 708 -8 854 153 b 508 708 854 546 708 708 b 315 626 410 708 340 676 l 315 968 l 64 968 z m 308 350 b 454 483 308 422 375 483 b 600 350 535 483 600 422 b 454 217 600 276 535 217 b 308 350 375 217 308 276 z "},"ﬀ":{"ha":1010,"x_min":0,"x_max":0,"o":"m 146 0 l 403 0 l 403 476 l 592 476 l 592 0 l 849 0 l 849 476 l 981 476 l 981 700 l 846 700 l 846 713 b 933 785 846 764 874 785 b 993 778 954 785 976 783 l 993 979 b 896 988 974 982 929 988 b 592 701 724 988 592 924 l 592 700 l 400 700 l 400 713 b 481 785 400 764 425 785 b 533 778 499 785 518 783 l 533 979 b 436 988 514 982 469 988 b 146 701 272 988 146 924 l 146 700 l 29 700 l 29 476 l 146 476 z "},"ﬁ":{"ha":928,"x_min":0,"x_max":0,"o":"m 147 0 l 404 0 l 404 476 l 581 476 l 581 210 b 790 -10 581 61 651 -10 b 901 1 864 -10 901 1 l 901 219 b 882 218 901 219 890 218 b 838 292 847 218 838 242 l 838 700 l 401 700 l 401 713 b 558 785 401 764 450 785 b 660 778 597 785 631 783 l 660 979 b 521 988 632 982 567 988 b 235 931 432 988 322 985 b 147 701 176 885 147 822 l 147 700 l 31 700 l 31 476 l 147 476 z "},"ﬂ":{"ha":1018,"x_min":0,"x_max":0,"o":"m 146 0 l 403 0 l 403 476 l 535 476 l 535 700 l 400 700 l 400 713 b 488 785 400 764 428 785 b 547 778 508 785 531 783 l 547 979 b 450 988 528 982 483 988 b 233 931 382 988 300 985 b 146 701 175 885 146 822 l 146 700 l 29 700 l 29 476 l 146 476 z m 622 251 b 885 -17 622 19 774 -17 b 1006 -6 931 -17 982 -11 l 1006 211 b 956 207 990 208 971 207 b 879 288 903 207 879 229 l 879 968 l 622 968 z "},"ﬃ":{"ha":1360,"x_min":0,"x_max":0,"o":"m 146 0 l 403 0 l 403 476 l 579 476 l 579 0 l 836 0 l 836 476 l 1013 476 l 1013 210 b 1222 -10 1013 61 1083 -10 b 1333 1 1296 -10 1333 1 l 1333 219 b 1314 218 1333 219 1322 218 b 1269 292 1279 218 1269 242 l 1269 700 l 833 700 l 833 713 b 990 785 833 764 882 785 b 1092 778 1029 785 1063 783 l 1092 979 b 953 988 1064 982 999 988 b 667 931 864 988 754 985 b 579 701 608 885 579 822 l 579 700 l 400 700 l 400 713 b 481 785 400 764 425 785 b 533 778 499 785 518 783 l 533 979 b 436 988 514 982 469 988 b 146 701 272 988 146 924 l 146 700 l 29 700 l 29 476 l 146 476 z "},"ﬄ":{"ha":1450,"x_min":0,"x_max":0,"o":"m 146 0 l 403 0 l 403 476 l 592 476 l 592 0 l 849 0 l 849 476 l 981 476 l 981 700 l 846 700 l 846 713 b 933 785 846 764 874 785 b 993 778 954 785 976 783 l 993 979 b 896 988 974 982 929 988 b 592 701 724 988 592 924 l 592 700 l 400 700 l 400 713 b 481 785 400 764 425 785 b 533 778 499 785 518 783 l 533 979 b 436 988 514 982 469 988 b 146 701 272 988 146 924 l 146 700 l 29 700 l 29 476 l 146 476 z m 1054 251 b 1317 -17 1054 19 1206 -17 b 1438 -6 1363 -17 1414 -11 l 1438 211 b 1388 207 1422 208 1403 207 b 1311 288 1335 207 1311 229 l 1311 968 l 1054 968 z "},"¹":{"ha":344,"x_min":0,"x_max":0,"o":"m 110 456 l 294 456 l 294 968 l 28 968 l 28 806 l 110 806 z "},"²":{"ha":472,"x_min":0,"x_max":0,"o":"m 21 456 l 453 456 l 453 618 l 296 618 l 378 679 b 435 796 413 710 435 743 b 239 978 435 897 347 978 b 33 771 126 978 33 888 l 193 771 b 240 829 193 806 214 829 b 276 785 261 829 276 811 b 250 744 276 768 265 756 l 21 582 z "},"³":{"ha":463,"x_min":0,"x_max":0,"o":"m 200 449 b 435 640 354 449 435 540 b 313 783 435 704 393 764 l 311 783 l 403 842 l 403 968 l 46 968 l 46 806 l 201 806 l 83 742 l 128 658 b 199 675 149 669 175 675 b 251 642 232 675 251 663 b 197 608 251 618 224 608 b 133 638 172 608 157 617 l 1 539 b 200 449 44 486 114 449 z "},"⁴":{"ha":488,"x_min":0,"x_max":0,"o":"m 289 454 l 449 454 l 449 778 l 289 778 l 289 681 l 194 681 l 342 968 l 172 968 l 19 658 l 19 536 l 289 536 z "},"⁵":{"ha":444,"x_min":0,"x_max":0,"o":"m 218 449 b 422 625 332 449 422 528 b 260 779 422 713 349 779 b 201 775 240 779 214 779 l 208 806 l 381 806 l 381 968 l 78 968 l 29 696 l 143 667 b 189 678 154 675 174 678 b 239 643 215 678 239 667 b 190 608 239 617 215 608 b 131 639 164 608 139 624 l 0 551 b 218 449 40 492 121 449 z "},"⁶":{"ha":475,"x_min":0,"x_max":0,"o":"m 235 449 b 457 642 358 449 457 536 b 288 815 457 738 382 815 l 281 815 l 383 968 l 188 968 l 92 817 b 18 639 50 750 18 700 b 235 449 18 535 114 449 z m 235 606 b 194 643 214 606 194 624 b 235 679 194 660 214 679 b 274 643 256 679 274 660 b 235 606 274 622 256 606 z "},"⁷":{"ha":456,"x_min":0,"x_max":0,"o":"m 51 456 l 233 456 l 429 831 l 429 968 l 32 968 l 32 806 l 240 806 z "},"⁸":{"ha":472,"x_min":0,"x_max":0,"o":"m 236 449 b 454 638 360 449 454 535 b 392 749 454 675 432 721 b 418 813 410 765 418 783 b 236 978 418 904 336 978 b 53 813 135 978 53 904 b 79 749 53 783 61 764 b 18 638 39 719 18 675 b 236 449 18 535 113 449 z m 236 779 b 208 806 221 779 208 790 b 236 832 208 821 221 832 b 263 806 250 832 263 821 b 236 779 263 790 250 779 z m 236 606 b 200 640 218 606 200 622 b 236 675 200 657 217 675 b 271 640 254 675 271 656 b 236 606 271 624 254 606 z "},"⁹":{"ha":475,"x_min":0,"x_max":0,"o":"m 86 456 l 282 456 l 383 608 b 457 785 428 675 457 725 b 240 978 457 892 357 978 b 18 783 117 978 18 889 b 185 604 18 685 94 604 l 189 604 z m 240 744 b 201 782 218 744 201 761 b 240 818 201 801 218 818 b 279 782 263 818 279 801 b 240 744 279 761 263 744 z "},"⁰":{"ha":506,"x_min":0,"x_max":0,"o":"m 253 446 b 463 607 361 446 451 515 b 465 713 465 631 465 654 b 463 817 465 771 465 793 b 253 978 451 910 361 978 b 43 817 144 978 54 910 b 40 713 40 793 40 771 b 43 607 40 654 40 631 b 253 446 54 515 144 446 z m 258 599 b 226 629 242 599 228 610 b 225 713 225 643 225 669 b 226 790 225 756 225 775 b 258 821 228 808 242 821 b 290 790 275 821 289 808 b 292 713 292 775 292 756 b 290 629 292 669 292 643 b 258 599 289 610 275 599 z "},"₁":{"ha":344,"x_min":0,"x_max":0,"o":"m 110 0 l 294 0 l 294 513 l 28 513 l 28 350 l 110 350 z "},"₂":{"ha":472,"x_min":0,"x_max":0,"o":"m 21 0 l 453 0 l 453 163 l 296 163 l 378 224 b 435 340 413 254 435 288 b 239 522 435 442 347 522 b 33 315 126 522 33 432 l 193 315 b 240 374 193 350 214 374 b 276 329 261 374 276 356 b 250 289 276 313 265 300 l 21 126 z "},"₃":{"ha":463,"x_min":0,"x_max":0,"o":"m 1 83 b 200 -7 44 31 114 -7 b 435 185 354 -7 435 85 b 313 328 435 249 393 308 l 311 328 l 403 386 l 403 513 l 46 513 l 46 350 l 201 350 l 83 286 l 128 203 b 199 219 149 214 175 219 b 251 186 232 219 251 207 b 197 153 251 163 224 153 b 133 182 172 153 157 161 z "},"₄":{"ha":488,"x_min":0,"x_max":0,"o":"m 19 82 l 289 82 l 289 0 l 449 0 l 449 324 l 289 324 l 289 226 l 194 226 l 342 514 l 172 514 l 19 204 z "},"₅":{"ha":444,"x_min":0,"x_max":0,"o":"m 0 96 b 218 -7 40 36 121 -7 b 422 169 332 -7 422 72 b 260 324 422 257 349 324 b 201 319 240 324 214 324 l 208 350 l 381 350 l 381 513 l 78 513 l 29 240 l 143 211 b 189 222 154 219 174 222 b 239 188 215 222 239 211 b 190 153 239 161 215 153 b 131 183 164 153 139 168 z "},"₆":{"ha":475,"x_min":0,"x_max":0,"o":"m 18 183 b 235 -7 18 79 114 -7 b 457 186 358 -7 457 81 b 288 360 457 282 382 360 l 281 360 l 383 513 l 188 513 l 92 361 b 18 183 50 294 18 244 z m 194 188 b 235 224 194 204 214 224 b 274 188 256 224 274 204 b 235 150 274 167 256 150 b 194 188 214 150 194 168 z "},"₇":{"ha":456,"x_min":0,"x_max":0,"o":"m 51 0 l 233 0 l 429 375 l 429 513 l 32 513 l 32 350 l 240 350 z "},"₈":{"ha":472,"x_min":0,"x_max":0,"o":"m 18 182 b 236 -7 18 79 113 -7 b 454 182 360 -7 454 79 b 392 293 454 219 432 265 b 418 357 410 310 418 328 b 236 522 418 449 336 522 b 53 357 135 522 53 449 b 79 293 53 328 61 308 b 18 182 39 264 18 219 z m 236 324 b 208 350 221 324 208 335 b 236 376 208 365 221 376 b 263 350 250 376 263 365 b 236 324 263 335 250 324 z m 200 185 b 236 219 200 201 217 219 b 271 185 254 219 271 200 b 236 150 271 168 254 150 b 200 185 218 150 200 167 z "},"₉":{"ha":475,"x_min":0,"x_max":0,"o":"m 86 0 l 282 0 l 383 153 b 457 329 428 219 457 269 b 240 522 457 436 357 522 b 18 328 117 522 18 433 b 185 149 18 229 94 149 l 189 149 z m 240 289 b 201 326 218 289 201 306 b 240 363 201 346 218 363 b 279 326 263 363 279 346 b 240 289 279 306 263 289 z "},"₀":{"ha":506,"x_min":0,"x_max":0,"o":"m 43 151 b 253 -10 54 60 144 -10 b 463 151 361 -10 451 60 b 465 257 465 175 465 199 b 463 361 465 315 465 338 b 253 522 451 454 361 522 b 43 361 144 522 54 454 b 40 257 40 338 40 315 b 43 151 40 199 40 175 z m 226 174 b 225 257 225 188 225 214 b 226 335 225 300 225 319 b 258 365 228 353 242 365 b 290 335 275 365 289 353 b 292 257 292 319 292 300 b 290 174 292 214 292 188 b 258 143 289 154 275 143 b 226 174 242 143 228 154 z "},"½":{"ha":1035,"x_min":0,"x_max":0,"o":"m 28 0 l 254 0 l 929 968 l 703 968 z m 110 456 l 294 456 l 294 968 l 28 968 l 28 806 l 110 806 z m 583 0 l 1015 0 l 1015 163 l 858 163 l 940 224 b 997 340 975 254 997 288 b 801 522 997 442 910 522 b 596 315 689 522 596 432 l 756 315 b 803 374 756 350 776 374 b 839 329 824 374 839 356 b 813 289 839 313 828 300 l 583 126 z "},"⅓":{"ha":1088,"x_min":0,"x_max":0,"o":"m 33 0 l 260 0 l 935 968 l 708 968 z m 110 456 l 294 456 l 294 968 l 28 968 l 28 806 l 110 806 z m 626 83 b 825 -7 669 31 739 -7 b 1060 185 979 -7 1060 85 b 938 328 1060 249 1018 308 l 936 328 l 1028 386 l 1028 513 l 671 513 l 671 350 l 826 350 l 708 286 l 753 203 b 824 219 774 214 800 219 b 876 186 857 219 876 207 b 822 153 876 163 849 153 b 758 182 797 153 782 161 z "},"⅔":{"ha":1231,"x_min":0,"x_max":0,"o":"m 167 0 l 393 0 l 1068 968 l 842 968 z m 21 456 l 453 456 l 453 618 l 296 618 l 378 679 b 435 796 413 710 435 743 b 239 978 435 897 347 978 b 33 771 126 978 33 888 l 193 771 b 240 829 193 806 214 829 b 276 785 261 829 276 811 b 250 744 276 768 265 756 l 21 582 z m 769 83 b 968 -7 813 31 882 -7 b 1203 185 1122 -7 1203 85 b 1081 328 1203 249 1161 308 l 1079 328 l 1171 386 l 1171 513 l 814 513 l 814 350 l 969 350 l 851 286 l 896 203 b 967 219 917 214 943 219 b 1019 186 1000 219 1019 207 b 965 153 1019 163 992 153 b 901 182 940 153 925 161 z "},"¼":{"ha":1064,"x_min":0,"x_max":0,"o":"m 54 0 l 281 0 l 956 968 l 729 968 z m 110 456 l 294 456 l 294 968 l 28 968 l 28 806 l 110 806 z m 596 82 l 865 82 l 865 0 l 1025 0 l 1025 324 l 865 324 l 865 226 l 771 226 l 918 514 l 749 514 l 596 204 z "},"¾":{"ha":1083,"x_min":0,"x_max":0,"o":"m 88 0 l 314 0 l 989 968 l 763 968 z m 200 449 b 435 640 354 449 435 540 b 313 783 435 704 393 764 l 311 783 l 403 842 l 403 968 l 46 968 l 46 806 l 201 806 l 83 742 l 128 658 b 199 675 149 669 175 675 b 251 642 232 675 251 663 b 197 608 251 618 224 608 b 133 638 172 608 157 617 l 1 539 b 200 449 44 486 114 449 z m 615 82 l 885 82 l 885 0 l 1044 0 l 1044 324 l 885 324 l 885 226 l 790 226 l 938 514 l 768 514 l 615 204 z "},".":{"ha":314,"x_min":0,"x_max":0,"o":"m 22 119 b 157 -14 22 46 83 -14 b 292 119 231 -14 292 46 b 157 253 292 193 231 253 b 22 119 83 253 22 193 z "},",":{"ha":369,"x_min":0,"x_max":0,"o":"m -32 -178 l 151 -178 l 326 154 l 89 154 z "},":":{"ha":342,"x_min":0,"x_max":0,"o":"m 171 401 b 306 535 244 401 306 461 b 171 668 306 608 244 668 b 36 535 97 668 36 608 b 171 401 36 461 97 401 z m 171 38 b 306 171 244 38 306 97 b 171 304 306 244 244 304 b 36 171 97 304 36 244 b 171 38 36 97 97 38 z "},";":{"ha":369,"x_min":0,"x_max":0,"o":"m 190 399 b 325 532 264 399 325 458 b 190 665 325 606 264 665 b 56 532 117 665 56 606 b 190 399 56 458 117 399 z m -32 -178 l 151 -178 l 326 154 l 89 154 z "},"•":{"ha":564,"x_min":0,"x_max":0,"o":"m 282 160 b 472 349 389 160 472 243 b 282 538 472 454 385 538 b 92 349 179 538 92 454 b 282 160 92 247 179 160 z "},"·":{"ha":317,"x_min":0,"x_max":0,"o":"m 157 218 b 292 351 231 218 292 278 b 157 485 292 425 231 485 b 22 351 83 485 22 425 b 157 218 22 278 83 218 z "},"…":{"ha":969,"x_min":0,"x_max":0,"o":"m 678 119 b 813 -14 678 46 739 -14 b 947 119 886 -14 947 46 b 813 253 947 193 886 253 b 678 119 739 253 678 193 z m 350 119 b 485 -14 350 46 411 -14 b 619 119 558 -14 619 46 b 485 253 619 193 558 253 b 350 119 411 253 350 193 z m 22 119 b 157 -14 22 46 83 -14 b 292 119 231 -14 292 46 b 157 253 292 193 231 253 b 22 119 83 253 22 193 z "},"‚":{"ha":369,"x_min":0,"x_max":0,"o":"m -32 -178 l 151 -178 l 326 154 l 89 154 z "},"„":{"ha":639,"x_min":0,"x_max":0,"o":"m 238 -178 l 421 -178 l 596 154 l 358 154 z m -32 -178 l 151 -178 l 326 154 l 89 154 z "},"”":{"ha":679,"x_min":0,"x_max":0,"o":"m 300 636 l 483 636 l 658 968 l 421 968 z m 31 636 l 214 636 l 389 968 l 151 968 z "},"\"":{"ha":621,"x_min":0,"x_max":0,"o":"m 378 618 l 546 618 l 578 968 l 347 968 z m 74 618 l 242 618 l 274 968 l 43 968 z "},"’":{"ha":411,"x_min":0,"x_max":0,"o":"m 31 636 l 214 636 l 389 968 l 151 968 z "},"‘":{"ha":410,"x_min":0,"x_max":0,"o":"m 31 636 l 268 636 l 389 968 l 206 968 z "},"“":{"ha":678,"x_min":0,"x_max":0,"o":"m 299 636 l 536 636 l 657 968 l 474 968 z m 31 636 l 268 636 l 389 968 l 206 968 z "},"'":{"ha":317,"x_min":0,"x_max":0,"o":"m 74 618 l 242 618 l 274 968 l 43 968 z "},"*":{"ha":508,"x_min":0,"x_max":0,"o":"m 192 525 l 253 644 l 315 525 l 449 619 l 356 721 l 489 746 l 440 896 l 317 833 l 336 968 l 171 968 l 192 832 l 67 896 l 19 746 l 154 721 l 60 619 z "},"†":{"ha":453,"x_min":0,"x_max":0,"o":"m 143 418 l 310 418 l 303 708 l 415 704 l 415 864 l 306 860 l 310 968 l 143 968 l 147 860 l 38 864 l 38 704 l 150 708 z "},"‡":{"ha":453,"x_min":0,"x_max":0,"o":"m 143 418 l 310 418 l 306 519 l 415 515 l 415 668 l 303 664 l 303 722 l 415 718 l 415 871 l 306 867 l 310 968 l 143 968 l 147 867 l 38 871 l 38 718 l 150 722 l 150 664 l 38 668 l 38 515 l 147 519 z "},"-":{"ha":639,"x_min":0,"x_max":0,"o":"m 51 290 l 588 290 l 588 507 l 51 507 z "},"–":{"ha":815,"x_min":0,"x_max":0,"o":"m 51 290 l 764 290 l 764 507 l 51 507 z "},"—":{"ha":1025,"x_min":0,"x_max":0,"o":"m 51 290 l 974 290 l 974 507 l 51 507 z "},"_":{"ha":669,"x_min":0,"x_max":0,"o":"m -17 -42 l -17 -232 l 686 -232 l 686 -42 z "},"|":{"ha":411,"x_min":0,"x_max":0,"o":"m 85 -39 l 326 -39 l 326 1007 l 85 1007 z "},"¦":{"ha":411,"x_min":0,"x_max":0,"o":"m 85 576 l 326 576 l 326 968 l 85 968 z m 85 0 l 326 0 l 326 408 l 85 408 z "},"+":{"ha":819,"x_min":0,"x_max":0,"o":"m 289 136 l 531 136 l 531 376 l 760 376 l 760 593 l 531 593 l 531 833 l 289 833 l 289 593 l 60 593 l 60 376 l 289 376 z "},"−":{"ha":819,"x_min":0,"x_max":0,"o":"m 60 376 l 760 376 l 760 593 l 60 593 z "},"±":{"ha":833,"x_min":0,"x_max":0,"o":"m 296 271 l 538 271 l 538 511 l 767 511 l 767 728 l 538 728 l 538 968 l 296 968 l 296 728 l 67 728 l 67 511 l 296 511 z m 67 0 l 767 0 l 767 217 l 67 217 z "},"×":{"ha":703,"x_min":0,"x_max":0,"o":"m 206 165 l 351 310 l 497 165 l 650 319 l 506 464 l 650 608 l 497 763 l 351 617 l 206 763 l 53 608 l 197 464 l 53 319 z "},"÷":{"ha":819,"x_min":0,"x_max":0,"o":"m 410 635 b 544 768 483 635 544 694 b 410 901 544 842 483 901 b 275 768 336 901 275 842 b 410 635 275 694 336 635 z m 60 376 l 760 376 l 760 593 l 60 593 z m 410 68 b 544 201 483 68 544 128 b 410 335 544 275 483 335 b 275 201 336 335 275 275 b 410 68 275 128 336 68 z "},"=":{"ha":833,"x_min":0,"x_max":0,"o":"m 67 544 l 767 544 l 767 761 l 67 761 z m 67 206 l 767 206 l 767 422 l 67 422 z "},"≠":{"ha":897,"x_min":0,"x_max":0,"o":"m 111 124 l 283 19 l 404 219 l 831 219 l 831 436 l 535 436 l 592 531 l 831 531 l 831 747 l 724 747 l 781 842 l 610 946 l 489 747 l 67 747 l 67 531 l 357 531 l 300 436 l 67 436 l 67 219 l 169 219 z "},"#":{"ha":974,"x_min":0,"x_max":0,"o":"m 133 88 l 340 88 l 371 211 l 481 211 l 450 88 l 657 88 l 688 211 l 856 211 l 856 428 l 740 428 l 765 529 l 935 529 l 935 746 l 819 746 l 849 864 l 642 864 l 613 746 l 501 746 l 531 864 l 325 864 l 296 746 l 122 746 l 122 529 l 242 529 l 217 428 l 43 428 l 43 211 l 164 211 z m 424 428 l 449 529 l 558 529 l 533 428 z "},"¤":{"ha":942,"x_min":0,"x_max":0,"o":"m 42 190 l 194 38 l 307 165 b 471 128 356 142 411 128 b 633 165 529 128 585 142 l 747 38 l 900 190 l 778 297 b 824 463 807 346 824 403 b 778 628 824 522 807 579 l 900 735 l 747 888 l 633 758 b 471 797 585 783 529 797 b 307 758 411 797 356 783 l 194 888 l 42 735 l 164 628 b 118 463 135 579 118 522 b 164 297 118 403 135 346 z m 471 343 b 350 463 404 343 350 397 b 471 582 350 528 404 582 b 592 463 538 582 592 528 b 471 343 592 397 538 343 z "},"¬":{"ha":919,"x_min":0,"x_max":0,"o":"m 65 540 l 613 540 l 613 303 l 854 303 l 854 757 l 65 757 z "},"<":{"ha":681,"x_min":0,"x_max":0,"o":"m 47 404 l 615 90 l 615 351 l 336 494 l 615 638 l 615 899 l 47 585 z "},">":{"ha":681,"x_min":0,"x_max":0,"o":"m 65 90 l 633 404 l 633 585 l 65 899 l 65 638 l 344 494 l 65 351 z "},"≤":{"ha":653,"x_min":0,"x_max":0,"o":"m 65 507 l 588 238 l 588 499 l 365 597 l 588 696 l 588 957 l 65 688 z m 65 0 l 588 0 l 588 217 l 65 217 z "},"≥":{"ha":653,"x_min":0,"x_max":0,"o":"m 65 238 l 588 507 l 588 688 l 65 957 l 65 696 l 288 597 l 65 499 z m 65 0 l 588 0 l 588 217 l 65 217 z "},"^":{"ha":744,"x_min":0,"x_max":0,"o":"m 7 486 l 251 486 l 372 722 l 493 486 l 738 486 l 468 968 l 276 968 z "},"~":{"ha":683,"x_min":0,"x_max":0,"o":"m 33 397 l 169 375 b 225 424 176 414 199 424 b 442 363 294 424 344 363 b 650 606 571 363 632 458 l 514 628 b 453 569 503 585 483 569 b 239 631 383 569 335 631 b 33 397 121 631 50 532 z "},"≈":{"ha":697,"x_min":0,"x_max":0,"o":"m 40 561 l 176 539 b 232 588 183 578 206 588 b 449 526 301 588 351 526 b 657 769 578 526 639 622 l 521 792 b 460 733 510 749 490 733 b 246 794 390 733 342 794 b 40 561 128 794 57 696 z m 40 240 l 176 218 b 232 267 183 257 206 267 b 449 206 301 267 351 206 b 657 449 578 206 639 301 l 521 471 b 460 413 510 428 490 413 b 246 474 390 413 342 474 b 40 240 128 474 57 375 z "},"‹":{"ha":517,"x_min":0,"x_max":0,"o":"m 215 85 l 479 85 l 299 351 l 479 618 l 215 618 l 40 351 z "},"›":{"ha":517,"x_min":0,"x_max":0,"o":"m 38 85 l 301 85 l 476 351 l 301 618 l 38 618 l 218 351 z "},"«":{"ha":893,"x_min":0,"x_max":0,"o":"m 592 85 l 856 85 l 675 351 l 856 618 l 592 618 l 417 351 z m 215 85 l 479 85 l 299 351 l 479 618 l 215 618 l 40 351 z "},"»":{"ha":893,"x_min":0,"x_max":0,"o":"m 414 85 l 678 85 l 853 351 l 678 618 l 414 618 l 594 351 z m 38 85 l 301 85 l 476 351 l 301 618 l 38 618 l 218 351 z "},"/":{"ha":651,"x_min":0,"x_max":0,"o":"m -46 -189 l 182 -189 l 646 1004 l 418 1004 z "},"\\":{"ha":651,"x_min":0,"x_max":0,"o":"m 469 -189 l 697 -189 l 233 1004 l 6 1004 z "},"(":{"ha":475,"x_min":0,"x_max":0,"o":"m 46 429 b 367 -240 46 174 150 -62 l 479 -118 b 268 429 349 36 268 179 b 479 971 268 665 349 819 l 367 1094 b 46 429 158 911 46 682 z "},")":{"ha":475,"x_min":0,"x_max":0,"o":"m -4 -118 l 108 -240 b 429 429 325 -62 429 174 b 108 1094 429 682 317 911 l -4 971 b 207 429 126 819 207 665 b -4 -118 207 179 126 36 z "},"[":{"ha":567,"x_min":0,"x_max":0,"o":"m 319 -131 l 319 751 l 558 751 l 558 968 l 78 968 l 78 -347 l 558 -347 l 558 -131 z "},"]":{"ha":567,"x_min":0,"x_max":0,"o":"m 8 -131 l 8 -347 l 489 -347 l 489 968 l 8 968 l 8 751 l 247 751 l 247 -131 z "},"{":{"ha":542,"x_min":0,"x_max":0,"o":"m 146 -60 b 313 -237 146 -162 215 -237 l 493 -237 l 493 -31 l 446 -31 b 378 31 394 -31 378 1 l 378 190 b 311 329 378 239 365 294 b 229 365 286 344 261 357 b 311 401 261 374 286 386 b 378 540 365 436 378 492 l 378 700 b 446 761 378 729 394 761 l 493 761 l 493 968 l 313 968 b 146 790 215 968 146 893 l 146 532 b 90 436 146 486 128 453 b 28 422 60 424 28 422 l 28 308 b 90 294 28 308 60 307 b 146 199 128 278 146 244 z "},"}":{"ha":542,"x_min":0,"x_max":0,"o":"m 49 -31 l 49 -237 l 229 -237 b 396 -60 326 -237 396 -162 l 396 199 b 451 294 396 244 414 278 b 514 308 482 307 514 308 l 514 422 b 451 436 514 422 482 424 b 396 532 414 453 396 486 l 396 790 b 229 968 396 893 326 968 l 49 968 l 49 761 l 96 761 b 164 700 147 761 164 729 l 164 540 b 231 401 164 492 176 436 b 313 365 256 386 281 374 b 231 329 281 357 256 344 b 164 190 176 294 164 239 l 164 31 b 96 -31 164 1 147 -31 z "},"⁄":{"ha":885,"x_min":0,"x_max":0,"o":"m -8 0 l 218 0 l 893 968 l 667 968 z "},"%":{"ha":1078,"x_min":0,"x_max":0,"o":"m 253 558 b 475 771 376 558 475 651 b 253 982 475 890 376 982 b 29 771 129 982 29 890 b 253 558 29 651 129 558 z m 86 0 l 313 0 l 988 968 l 761 968 z m 253 725 b 211 771 228 725 211 743 b 253 815 211 796 228 815 b 294 771 276 815 294 796 b 253 725 294 743 276 725 z m 603 199 b 826 -14 603 79 703 -14 b 1049 199 950 -14 1049 79 b 826 410 1049 318 950 410 b 603 199 703 410 603 318 z m 785 199 b 826 243 785 224 801 243 b 868 199 850 243 868 224 b 826 153 868 171 850 153 b 785 199 801 153 785 171 z "},"‰":{"ha":1596,"x_min":0,"x_max":0,"o":"m 253 558 b 475 771 376 558 475 651 b 253 982 475 890 376 982 b 29 771 129 982 29 890 b 253 558 29 651 129 558 z m 86 0 l 313 0 l 988 968 l 761 968 z m 253 725 b 211 771 228 725 211 743 b 253 815 211 796 228 815 b 294 771 276 815 294 796 b 253 725 294 743 276 725 z m 1121 199 b 1344 -14 1121 79 1221 -14 b 1567 199 1468 -14 1567 79 b 1344 410 1567 318 1468 410 b 1121 199 1221 410 1121 318 z m 603 199 b 826 -14 603 79 703 -14 b 1049 199 950 -14 1049 79 b 826 410 1049 318 950 410 b 603 199 703 410 603 318 z m 1303 199 b 1344 243 1303 224 1319 243 b 1386 199 1368 243 1386 224 b 1344 153 1386 171 1368 153 b 1303 199 1319 153 1303 171 z m 785 199 b 826 243 785 224 801 243 b 868 199 850 243 868 224 b 826 153 868 171 850 153 b 785 199 801 153 785 171 z "},"°":{"ha":617,"x_min":0,"x_max":0,"o":"m 310 479 b 569 728 453 479 569 590 b 310 974 569 863 453 974 b 47 728 164 974 47 863 b 310 479 47 590 164 479 z m 310 639 b 219 728 258 639 219 679 b 310 814 219 774 258 814 b 399 728 358 814 399 774 b 310 639 399 679 358 639 z "},"´":{"ha":708,"x_min":0,"x_max":0,"o":"m 208 767 l 397 767 l 540 968 l 276 968 z "},"`":{"ha":708,"x_min":0,"x_max":0,"o":"m 307 767 l 496 767 l 428 968 l 164 968 z "},"ˆ":{"ha":708,"x_min":0,"x_max":0,"o":"m 74 767 l 289 767 l 354 831 l 421 767 l 636 767 l 422 935 l 288 935 z "},"ˇ":{"ha":708,"x_min":0,"x_max":0,"o":"m 286 810 l 421 810 l 635 978 l 419 978 l 353 914 l 288 978 l 72 978 z "},"˜":{"ha":708,"x_min":0,"x_max":0,"o":"m 39 796 l 175 774 b 231 822 182 813 204 822 b 461 761 304 822 358 761 b 669 969 590 761 651 844 l 533 992 b 472 933 522 949 503 933 b 244 994 399 933 346 994 b 39 796 126 994 56 908 z "},"¨":{"ha":708,"x_min":0,"x_max":0,"o":"m 500 750 b 615 860 564 750 615 800 b 500 969 615 921 564 969 b 385 860 436 969 385 919 b 500 750 385 800 436 750 z m 208 750 b 324 860 272 750 324 800 b 208 969 324 921 272 969 b 93 860 144 969 93 919 b 208 750 93 800 144 750 z "},"¯":{"ha":708,"x_min":0,"x_max":0,"o":"m 126 774 l 582 774 l 582 925 l 126 925 z "},"˘":{"ha":708,"x_min":0,"x_max":0,"o":"m 354 776 b 578 968 493 776 565 875 l 413 968 b 354 935 407 950 389 935 b 296 968 319 935 301 950 l 131 968 b 354 776 143 875 215 776 z "},"˚":{"ha":708,"x_min":0,"x_max":0,"o":"m 350 754 b 533 926 451 754 533 832 b 350 1099 533 1021 451 1099 b 164 926 247 1099 164 1021 b 350 754 164 832 247 754 z m 350 879 b 301 926 324 879 301 900 b 350 974 301 953 324 974 b 397 926 376 974 397 953 b 350 879 397 900 376 879 z "},"˝":{"ha":708,"x_min":0,"x_max":0,"o":"m 339 767 l 515 767 l 690 968 l 442 968 z m 68 767 l 244 767 l 419 968 l 171 968 z "},"˙":{"ha":708,"x_min":0,"x_max":0,"o":"m 356 750 b 474 863 421 750 474 801 b 356 975 474 924 421 975 b 238 863 290 975 238 924 b 356 750 238 801 290 750 z "},"˛":{"ha":708,"x_min":0,"x_max":0,"o":"m 224 -151 b 419 -317 224 -254 321 -317 b 499 -297 446 -317 474 -310 l 531 -146 b 450 -160 504 -154 479 -160 b 381 -118 415 -160 381 -147 b 472 0 381 -68 436 -24 l 328 0 b 224 -151 276 -32 224 -83 z "},"¸":{"ha":708,"x_min":0,"x_max":0,"o":"m 264 -106 b 338 -153 311 -106 338 -115 b 290 -192 338 -176 317 -192 b 229 -175 264 -192 250 -187 l 182 -275 b 325 -317 213 -297 269 -317 b 504 -169 433 -317 504 -264 b 413 -64 504 -104 463 -64 l 442 0 l 308 0 z "},"?":{"ha":635,"x_min":0,"x_max":0,"o":"m 335 249 b 497 285 394 249 451 264 l 497 469 b 392 442 468 451 431 442 b 340 471 357 442 340 451 b 421 526 340 499 374 506 b 589 753 557 585 589 651 b 292 982 589 890 468 982 b 53 906 203 982 115 953 l 53 643 b 276 746 114 703 193 746 b 328 725 307 746 328 743 b 254 676 328 704 290 693 b 96 467 161 633 96 569 b 335 249 96 340 193 249 z m 179 103 b 310 -24 179 33 238 -24 b 440 103 382 -24 440 33 b 310 229 440 172 382 229 b 179 103 238 229 179 172 z "},"¿":{"ha":635,"x_min":0,"x_max":0,"o":"m 315 461 b 446 588 388 461 446 518 b 315 714 446 657 388 714 b 185 588 243 714 185 657 b 315 461 185 518 243 461 z m 36 -62 b 333 -292 36 -200 157 -292 b 572 -215 422 -292 510 -262 l 572 47 b 349 -56 511 -12 432 -56 b 297 -35 318 -56 297 -53 b 371 14 297 -14 335 -3 b 529 224 464 57 529 121 b 290 442 529 350 432 442 b 128 406 231 442 174 426 l 128 221 b 233 249 157 239 194 249 b 285 219 268 249 285 239 b 204 164 285 192 251 185 b 36 -62 68 106 36 39 z "},"&":{"ha":1211,"x_min":0,"x_max":0,"o":"m 42 310 b 433 -21 42 114 199 -21 b 749 47 561 -21 667 -3 l 797 0 l 1122 0 l 925 193 b 1015 410 978 249 1015 325 l 1015 464 l 1185 464 l 1185 700 l 839 700 b 854 760 850 715 854 740 b 561 993 854 890 736 993 b 218 693 354 993 218 867 b 235 617 218 671 224 639 b 42 310 108 553 42 447 z m 507 586 b 458 686 474 619 458 651 b 558 796 458 761 513 796 b 654 706 613 796 654 757 b 603 626 654 664 632 633 l 603 490 z m 299 310 b 358 404 299 351 321 383 b 540 222 396 358 367 396 b 433 204 515 208 478 204 b 299 310 349 204 299 243 z m 779 464 l 779 451 b 740 353 779 418 776 374 l 629 464 z "},"!":{"ha":433,"x_min":0,"x_max":0,"o":"m 104 288 l 328 288 l 367 968 l 65 968 z m 82 119 b 217 -14 82 46 143 -14 b 351 119 290 -14 351 46 b 217 253 351 193 290 253 b 82 119 143 253 82 193 z "},"¡":{"ha":433,"x_min":0,"x_max":0,"o":"m 217 447 b 351 581 290 447 351 507 b 217 714 351 654 290 714 b 82 581 143 714 82 654 b 217 447 82 507 143 447 z m 65 -268 l 367 -268 l 328 413 l 104 413 z "},"@":{"ha":1115,"x_min":0,"x_max":0,"o":"m 42 406 b 561 -101 42 154 242 -101 b 760 -54 629 -101 697 -85 l 690 106 b 561 79 649 88 606 79 b 233 406 381 79 233 225 b 560 733 233 586 379 733 b 888 428 740 733 888 596 b 822 272 888 324 865 272 b 789 319 803 272 789 293 l 789 625 l 607 625 l 607 588 b 511 631 594 617 556 631 b 313 408 393 631 313 526 b 511 186 313 289 393 186 b 621 229 561 186 606 201 b 801 113 639 160 708 113 b 1075 428 969 113 1075 224 b 560 914 1075 686 857 914 b 42 406 303 914 42 714 z m 504 408 b 557 458 504 436 528 458 b 611 408 588 458 611 436 b 557 358 611 381 588 358 b 504 408 528 358 504 381 z "},"ª":{"ha":663,"x_min":0,"x_max":0,"o":"m 57 589 b 253 429 57 492 136 429 b 431 489 325 429 396 446 b 460 453 438 475 446 463 b 547 433 474 443 494 433 b 615 446 574 433 594 436 l 615 575 b 590 583 611 575 600 575 b 581 615 581 592 581 601 b 581 789 581 624 581 789 b 332 975 581 908 490 975 b 90 858 232 975 146 935 l 196 758 b 335 819 232 797 278 819 b 379 800 371 819 379 810 b 296 764 379 776 346 774 b 57 589 124 743 57 690 z m 258 615 b 300 647 258 633 274 640 b 378 664 329 654 364 656 l 378 661 b 290 596 378 611 338 596 b 258 615 267 596 258 603 z "},"º":{"ha":657,"x_min":0,"x_max":0,"o":"m 328 433 b 624 708 490 433 624 560 b 328 982 624 854 490 982 b 33 708 164 982 33 854 b 328 433 33 560 164 433 z m 328 647 b 261 708 293 647 261 676 b 328 768 261 738 293 768 b 394 708 361 768 394 738 b 328 647 394 676 361 647 z "},"№":{"ha":1864,"x_min":0,"x_max":0,"o":"m 79 0 l 332 0 l 332 508 l 699 0 l 917 0 l 917 968 l 664 968 l 664 478 l 318 968 l 79 968 z m 1072 642 b 1422 313 1072 450 1233 313 b 1772 642 1611 313 1772 450 b 1422 968 1772 832 1611 968 b 1072 642 1233 968 1072 832 z m 1321 642 b 1422 742 1321 689 1360 742 b 1524 642 1485 742 1524 689 b 1422 539 1524 593 1485 539 b 1321 642 1360 539 1321 596 z m 1082 0 l 1769 0 l 1769 217 l 1082 217 z "},"™":{"ha":1301,"x_min":0,"x_max":0,"o":"m 619 453 l 832 453 l 832 646 l 943 522 l 1054 646 l 1054 453 l 1267 453 l 1267 968 l 1110 968 l 943 769 l 779 968 l 619 968 z m 178 453 l 410 453 l 410 753 l 547 753 l 547 968 l 35 968 l 35 753 l 178 753 z "},"©":{"ha":1121,"x_min":0,"x_max":0,"o":"m 42 483 b 560 -31 42 176 299 -31 b 1079 483 863 -31 1079 218 b 560 997 1079 783 826 997 b 42 483 253 997 42 744 z m 222 483 b 560 817 222 667 374 817 b 899 483 747 817 899 667 b 560 150 899 300 747 150 b 222 483 374 150 222 300 z m 283 482 b 571 213 283 325 411 213 b 790 322 643 213 714 236 l 660 444 b 571 404 638 421 619 404 b 490 482 529 404 490 436 b 571 558 490 526 529 558 b 660 519 619 558 638 542 l 790 642 b 571 751 714 729 643 751 b 283 482 411 751 283 636 z "},"®":{"ha":589,"x_min":0,"x_max":0,"o":"m 294 485 b 557 738 435 485 557 599 b 294 989 557 875 439 989 b 32 738 149 989 32 875 b 294 485 32 600 150 485 z m 294 586 b 139 738 208 586 139 653 b 294 888 139 821 208 888 b 450 738 381 888 450 821 b 294 586 450 653 381 586 z m 208 639 l 282 639 l 282 692 l 283 692 l 314 639 l 400 639 l 353 711 b 383 767 374 722 383 742 b 308 842 383 808 350 842 l 208 842 z m 281 747 l 281 778 l 303 778 b 315 763 310 778 315 772 b 300 747 315 753 310 747 z "},"ℓ":{"ha":825,"x_min":0,"x_max":0,"o":"m 69 122 l 165 169 b 453 -32 186 83 283 -32 b 790 113 590 -32 701 15 l 651 263 b 507 200 613 229 564 200 b 408 274 469 200 408 200 l 408 281 b 729 710 617 400 729 532 b 457 1007 729 876 624 1007 b 153 646 304 1007 153 947 l 153 386 b -6 292 103 354 46 326 z m 406 518 l 406 707 b 446 778 406 758 425 778 b 488 704 471 778 488 757 b 406 518 488 642 465 563 z "},"℮":{"ha":1224,"x_min":0,"x_max":0,"o":"m 258 142 l 258 499 l 1182 499 l 1182 514 b 611 1044 1182 807 925 1044 b 42 514 297 1044 42 807 b 611 -17 42 221 297 -17 b 1057 189 793 -17 956 65 l 1015 189 b 613 13 921 82 775 13 b 258 142 475 13 351 63 z m 258 528 l 258 885 b 613 1014 351 964 475 1014 b 964 888 749 1014 871 965 l 964 528 z "},"$":{"ha":839,"x_min":0,"x_max":0,"o":"m -11 192 b 383 -12 47 101 167 -1 l 383 -147 l 493 -147 l 493 -11 b 817 293 717 8 817 131 b 490 599 817 421 756 525 l 490 747 b 604 685 540 736 579 711 l 772 822 b 493 975 719 883 631 954 l 493 1121 l 383 1121 l 383 981 b 58 692 210 971 58 872 b 386 381 58 501 214 428 l 386 217 b 175 329 293 226 217 269 z m 386 628 b 310 696 333 643 310 657 b 386 753 310 724 335 746 z m 490 221 l 490 350 b 560 285 532 335 560 317 b 490 221 560 250 535 229 z "},"¢":{"ha":746,"x_min":0,"x_max":0,"o":"m 268 0 l 390 0 l 413 121 l 425 121 b 726 258 529 121 629 153 l 572 407 b 457 344 539 372 507 350 l 456 344 l 508 621 b 572 574 532 610 551 594 l 726 722 b 550 840 668 785 610 821 l 574 968 l 451 968 l 432 860 l 425 860 b 33 490 208 860 33 703 b 296 140 33 321 143 188 z m 343 364 b 272 490 301 389 272 435 b 393 635 272 564 324 621 b 394 635 393 635 394 635 z "},"€":{"ha":1067,"x_min":0,"x_max":0,"o":"m 6 351 l 150 351 b 633 -14 207 133 403 -14 b 1007 175 783 -14 915 60 l 828 325 b 633 222 779 261 708 222 b 428 351 544 222 468 272 l 621 351 l 669 458 l 397 458 l 397 483 b 400 532 397 500 397 517 l 704 532 l 753 639 l 442 639 b 633 746 485 704 554 746 b 828 643 708 746 779 707 l 1007 793 b 633 982 915 908 783 982 b 157 639 411 982 221 843 l 78 639 l 29 532 l 135 532 b 133 483 133 515 133 500 l 133 458 l 54 458 z "},"£":{"ha":838,"x_min":0,"x_max":0,"o":"m 36 0 l 810 0 l 810 211 l 471 211 b 525 315 499 228 525 260 b 506 385 525 339 517 361 l 651 385 l 651 547 l 418 547 b 361 669 389 588 361 635 b 449 750 361 713 401 750 b 542 683 501 750 542 719 l 760 683 b 447 989 760 853 621 989 b 114 697 261 989 114 858 b 160 547 114 646 135 596 l 85 547 l 85 385 l 250 385 b 271 315 261 360 271 335 b 49 176 271 251 229 176 l 36 176 z "},"¥":{"ha":994,"x_min":0,"x_max":0,"o":"m 367 0 l 628 0 l 628 179 l 922 179 l 922 346 l 629 346 l 688 447 l 922 447 l 922 614 l 785 614 l 993 968 l 710 968 l 497 592 l 285 968 l 1 968 l 208 614 l 72 614 l 72 447 l 306 447 l 365 346 l 72 346 l 72 179 l 367 179 z "},"ƒ":{"ha":686,"x_min":0,"x_max":0,"o":"m 1 -140 l 257 -140 l 385 438 l 518 438 l 563 639 l 428 639 b 432 658 429 646 431 651 b 549 756 444 713 474 756 b 636 750 579 756 615 754 l 686 982 b 561 992 642 989 601 992 b 179 658 290 992 218 831 b 175 639 178 651 176 646 l 79 639 l 35 438 l 131 438 z "},"§":{"ha":799,"x_min":0,"x_max":0,"o":"m 58 13 b 399 -289 58 -151 175 -289 b 729 -3 560 -289 729 -183 b 671 146 729 58 707 107 b 758 329 725 188 758 249 b 518 579 758 464 656 535 b 347 646 467 596 383 619 b 318 713 325 661 318 686 b 403 782 318 754 360 782 b 493 688 467 782 485 742 l 738 688 b 397 989 738 851 621 989 b 67 703 236 989 67 883 b 125 554 67 640 89 592 b 38 371 69 511 38 450 b 278 121 38 236 139 164 b 453 47 328 104 411 85 b 478 -12 471 31 478 11 b 393 -82 478 -54 436 -82 b 303 13 329 -82 311 -42 z m 481 256 l 454 264 b 283 375 382 285 283 311 b 315 443 283 403 296 426 l 340 436 b 513 325 411 417 513 388 b 481 256 513 297 500 272 z "},"¶":{"ha":1110,"x_min":0,"x_max":0,"o":"m 363 0 l 625 0 l 625 729 l 739 729 l 739 0 l 999 0 l 999 729 l 1093 729 l 1093 968 l 379 968 b 18 615 181 968 18 810 b 363 271 18 428 172 279 z "},"∆":{"ha":932,"x_min":0,"x_max":0,"o":"m 40 0 l 892 0 l 892 158 l 569 968 l 361 968 l 40 158 z m 321 239 l 465 611 l 611 239 z "},"Ω":{"ha":1164,"x_min":0,"x_max":0,"o":"m 43 0 l 557 0 b 333 414 444 63 333 224 b 582 746 333 590 414 746 b 831 414 750 746 831 590 b 607 0 831 224 719 63 l 1122 0 l 1122 239 l 1022 239 b 1100 497 1067 308 1100 399 b 582 982 1100 764 868 982 b 64 497 296 982 64 764 b 140 239 64 399 96 308 l 43 239 z "},"μ":{"ha":832,"x_min":0,"x_max":0,"o":"m 306 89 b 504 -17 351 13 417 -17 b 774 283 679 -17 774 94 l 774 700 l 532 700 l 532 313 b 424 196 532 242 493 196 b 306 317 356 196 306 246 l 306 700 l 64 700 l 64 -347 l 306 -347 z "},"π":{"ha":957,"x_min":0,"x_max":0,"o":"m 135 0 l 397 0 b 482 461 447 90 476 238 l 557 461 l 557 219 b 783 -14 557 17 686 -14 b 868 -7 814 -14 849 -11 b 868 197 868 197 868 197 b 801 253 821 197 801 206 l 801 461 l 867 461 l 925 700 l 215 700 b -14 547 113 700 24 638 l 176 439 b 210 461 181 450 189 461 l 236 461 b 135 0 236 258 211 149 z "},"∞":{"ha":1168,"x_min":0,"x_max":0,"o":"m 301 171 b 593 317 424 171 517 242 b 850 171 668 243 740 171 b 1135 442 1014 171 1135 299 b 867 718 1135 606 1022 718 b 579 565 744 718 654 644 b 315 718 508 638 431 718 b 33 442 151 718 33 589 b 301 171 33 285 143 171 z m 714 438 b 822 510 744 471 782 510 b 899 442 867 510 899 482 b 819 378 899 406 865 378 b 714 438 782 378 744 408 z m 349 378 b 269 442 301 378 269 406 b 351 510 269 479 304 510 b 458 449 388 510 425 481 b 349 378 428 417 388 378 z "},"∂":{"ha":800,"x_min":0,"x_max":0,"o":"m 42 317 b 361 -21 42 142 146 -21 b 668 136 479 -21 600 31 b 756 500 738 246 756 372 b 703 789 756 578 747 694 b 394 989 640 921 531 989 b 89 889 214 989 125 918 l 218 713 b 367 753 242 731 289 753 b 497 632 475 753 497 675 l 497 631 b 394 656 474 647 431 656 b 42 317 186 656 42 489 z m 300 310 b 400 424 300 383 351 424 b 494 338 457 424 494 386 b 472 267 494 313 488 289 b 385 221 451 236 421 221 b 300 310 326 221 300 265 z "},"∏":{"ha":1024,"x_min":0,"x_max":0,"o":"m 171 0 l 432 0 l 432 731 l 592 731 l 592 0 l 853 0 l 853 731 l 999 731 l 999 968 l 25 968 l 25 731 l 171 731 z "},"◊":{"ha":797,"x_min":0,"x_max":0,"o":"m 307 0 l 490 0 l 796 485 l 494 968 l 303 968 l 1 485 z m 399 260 l 263 482 l 399 697 l 535 482 z "},"∑":{"ha":808,"x_min":0,"x_max":0,"o":"m 35 0 l 768 0 l 768 239 l 365 239 l 579 496 l 388 718 l 751 718 l 751 968 l 35 968 l 35 796 l 297 499 l 35 181 z "},"√":{"ha":929,"x_min":0,"x_max":0,"o":"m 79 328 l 206 382 l 399 -121 l 539 -121 l 933 1111 l 700 1111 l 456 311 l 335 635 l 6 500 z "},"∫":{"ha":472,"x_min":0,"x_max":0,"o":"m 17 81 l 17 -129 b 121 -142 47 -136 88 -142 b 388 171 285 -142 388 -67 b 350 738 388 297 350 588 b 406 881 350 825 353 881 b 456 876 428 881 443 879 l 456 1083 b 367 1096 431 1090 396 1096 b 113 783 210 1096 113 1021 b 150 258 113 613 150 382 b 82 74 150 146 147 74 b 17 81 54 74 35 76 z "},"←":{"ha":997,"x_min":0,"x_max":0,"o":"m 411 -29 l 576 135 l 471 236 l 947 236 l 947 475 l 471 475 l 576 575 l 411 739 l 29 356 z "},"↑":{"ha":1108,"x_min":0,"x_max":0,"o":"m 425 0 l 664 0 l 664 426 l 785 300 l 943 460 l 544 857 l 146 460 l 304 300 l 425 426 z "},"→":{"ha":997,"x_min":0,"x_max":0,"o":"m 50 236 l 526 236 l 421 135 l 586 -29 l 968 356 l 586 739 l 421 575 l 525 475 l 50 475 z "},"↓":{"ha":1108,"x_min":0,"x_max":0,"o":"m 146 240 l 544 -157 l 943 240 l 785 400 l 664 274 l 664 700 l 425 700 l 425 274 l 304 400 z "},"↔":{"ha":1375,"x_min":0,"x_max":0,"o":"m 411 -29 l 576 135 l 471 236 l 904 236 l 799 135 l 964 -29 l 1346 356 l 964 739 l 799 575 l 903 475 l 471 475 l 576 575 l 411 739 l 29 356 z "},"↕":{"ha":1108,"x_min":0,"x_max":0,"o":"m 153 146 l 544 -235 l 936 146 l 778 306 l 664 190 l 664 517 l 778 403 l 936 563 l 544 943 l 153 563 l 311 403 l 425 517 l 425 190 l 311 306 z "},"↖":{"ha":1108,"x_min":0,"x_max":0,"o":"m 240 126 l 474 126 l 474 299 l 792 -19 l 961 150 l 638 474 l 806 474 l 806 700 l 240 700 z "},"↗":{"ha":1108,"x_min":0,"x_max":0,"o":"m 147 150 l 317 -19 l 635 299 l 635 126 l 868 126 l 868 700 l 303 700 l 303 474 l 471 474 z "},"↘":{"ha":1108,"x_min":0,"x_max":0,"o":"m 303 0 l 868 0 l 868 574 l 635 574 l 635 401 l 317 719 l 147 550 l 471 226 l 303 226 z "},"↙":{"ha":1108,"x_min":0,"x_max":0,"o":"m 240 0 l 806 0 l 806 226 l 638 226 l 961 550 l 792 719 l 474 401 l 474 574 l 240 574 z "},"▲":{"ha":824,"x_min":0,"x_max":0,"o":"m 78 139 l 746 139 l 401 710 z "},"►":{"ha":824,"x_min":0,"x_max":0,"o":"m 151 28 l 722 372 l 151 696 z "},"▼":{"ha":824,"x_min":0,"x_max":0,"o":"m 401 43 l 746 614 l 78 614 z "},"◄":{"ha":824,"x_min":0,"x_max":0,"o":"m 101 372 l 672 28 l 672 696 z "},"◢":{"ha":824,"x_min":0,"x_max":0,"o":"m 65 231 l 713 71 l 538 703 z "},"◣":{"ha":824,"x_min":0,"x_max":0,"o":"m 111 71 l 758 231 l 286 703 z "},"◤":{"ha":824,"x_min":0,"x_max":0,"o":"m 272 32 l 744 504 l 113 679 z "},"◥":{"ha":824,"x_min":0,"x_max":0,"o":"m 76 504 l 549 32 l 708 679 z "}}}
